<svg width="232" height="652" viewBox="0 0 232 652" fill="none" xmlns="http://www.w3.org/2000/svg">
<path d="M191.648 253.915C189.018 253.473 186.944 252.048 185.141 249.425C183.752 247.408 183.666 247.223 183.602 246.019C183.559 245.171 183.602 244.814 183.809 244.308C184.158 243.46 184.806 242.79 185.69 242.363C186.289 242.07 186.545 242.028 187.251 242.085C188.619 242.206 189.403 242.819 190.686 244.757C191.548 246.069 191.947 246.389 192.874 246.51C194.442 246.717 196.494 246.119 198.191 244.95C198.625 244.643 199.587 243.76 200.321 242.983C203.806 239.284 206.664 233.932 208.389 227.874C209.693 223.306 210.171 218.987 209.871 214.561C209.643 211.19 209.109 209.03 208.182 207.691C207.534 206.75 206.835 206.401 205.581 206.386C204.384 206.379 204.626 206.215 201.633 209.144C199.053 211.682 198.183 212.43 196.509 213.592C192.81 216.15 188.648 217.469 184.293 217.469C180.48 217.469 177.423 216.229 175.1 213.741C173.489 212.017 172.684 210.199 172.541 207.997C172.292 204.084 174.537 200.542 181.107 194.47C186.845 189.161 190.045 185.826 193.081 181.963C201.825 170.866 204.334 160.981 200.699 151.942C199.523 149.018 197.77 146.324 195.668 144.194C190.707 139.172 181.222 135.648 170.032 134.668C167.41 134.437 159.984 134.432 157.76 134.658C150.362 135.41 144.134 136.938 138.083 139.489C126.944 144.181 117.583 151.351 113.505 158.313C111.148 162.335 111.296 164.858 114.059 167.745C115.285 169.02 116.201 169.676 117.478 170.175C118.12 170.432 118.561 170.489 119.804 170.496C121.216 170.496 121.397 170.467 122.072 170.111C122.476 169.897 123.346 169.241 124.007 168.65C128.127 164.972 131.59 162.243 133.208 161.395C134.47 160.732 136.301 160.197 138.118 159.964C139.979 159.725 143.3 159.866 144.725 160.24C152.002 162.179 155.722 169.619 153.826 178.456C152.857 182.961 150.769 187.443 146.514 194.143C141.889 201.433 136.037 208.795 128.255 217.119C126.872 218.602 122.965 222.621 119.572 226.064C111.954 233.789 111.26 234.594 111.055 235.949C110.979 236.447 111.009 236.54 111.299 236.747C111.48 236.868 112.042 237.082 112.548 237.21C113.394 237.431 116.115 237.452 146.749 237.524C179.647 237.602 178.905 237.602 179.554 237.887C179.981 238.065 180.537 238.5 181.1 239.099C181.813 239.847 182.034 240.189 182.226 240.845C182.932 243.218 181.492 245.491 179.162 245.691C178.506 245.748 178.2 245.691 177.48 245.392L176.61 245.021H146.45C124.922 245.021 114.616 244.971 113.441 244.864C108.432 244.408 105.446 242.398 104.245 238.664C103.919 237.645 103.918 235.179 104.243 233.86C104.51 232.77 105.208 231.159 105.818 230.219C106.681 228.893 108.712 226.698 114.643 220.69C126.51 208.667 131.989 202.431 137.498 194.656C143.271 186.517 146.471 180.195 147.113 175.663C147.626 172.064 146.571 169.206 144.297 168.023C143.15 167.431 142.181 167.274 140.15 167.36C138.24 167.445 137.22 167.631 136.415 168.058C135.382 168.6 132.203 171.151 128.875 174.102C126.086 176.575 124.622 177.394 122.216 177.829C117.555 178.67 113.132 177.159 109.409 173.446C103.86 167.916 103.297 161.266 107.756 153.917C111.746 147.343 118.932 141.105 128.54 135.873C137.641 130.92 146.592 128.224 157.425 127.175C159.862 126.939 167.403 126.942 170.296 127.18C177.622 127.782 184.215 129.333 189.831 131.776C191.698 132.589 194.905 134.301 196.245 135.201C200.621 138.137 204.084 142.248 206.443 147.301C208.482 151.65 209.344 155.494 209.344 160.183C209.351 165.478 208.254 170.04 205.659 175.513C201.961 183.31 196.117 190.558 186.039 199.851C181.785 203.771 179.568 206.415 179.568 207.577C179.568 208.296 181.143 209.494 182.519 209.836C183.374 210.042 185.483 210.014 186.709 209.779C188.669 209.394 189.767 209.002 191.449 208.061C193.024 207.177 194.257 206.173 196.822 203.657C199.587 200.942 200.115 200.485 201.191 199.887C203.379 198.668 206.301 198.518 209.073 199.473C211.674 200.371 213.649 202.324 215.045 205.389C216.321 208.189 216.827 210.841 217.005 215.708C217.397 226.342 213.449 238.35 206.85 246.575C203.685 250.523 200.307 252.839 196.444 253.723C195.283 253.987 192.703 254.086 191.648 253.915Z" fill="#F299EE" stroke="#EED1F6" stroke-width="1.8"/>
<g filter="url(#filter0_f_2_54)">
<path d="M191.648 253.915C189.018 253.473 186.944 252.048 185.141 249.425C183.752 247.408 183.666 247.223 183.602 246.019C183.559 245.171 183.602 244.814 183.809 244.308C184.158 243.46 184.806 242.79 185.69 242.363C186.289 242.07 186.545 242.028 187.251 242.085C188.619 242.206 189.403 242.819 190.686 244.757C191.548 246.069 191.947 246.389 192.874 246.51C194.442 246.717 196.494 246.119 198.191 244.95C198.625 244.643 199.587 243.76 200.321 242.983C203.806 239.284 206.664 233.932 208.389 227.874C209.693 223.306 210.171 218.987 209.871 214.561C209.643 211.19 209.109 209.03 208.182 207.691C207.534 206.75 206.835 206.401 205.581 206.386C204.384 206.379 204.626 206.215 201.633 209.144C199.053 211.682 198.183 212.43 196.509 213.592C192.81 216.15 188.648 217.469 184.293 217.469C180.48 217.469 177.423 216.229 175.1 213.741C173.489 212.017 172.684 210.199 172.541 207.997C172.292 204.084 174.537 200.542 181.107 194.47C186.845 189.161 190.045 185.826 193.081 181.963C201.825 170.866 204.334 160.981 200.699 151.942C199.523 149.018 197.77 146.324 195.668 144.194C190.707 139.172 181.222 135.648 170.032 134.668C167.41 134.437 159.984 134.432 157.76 134.658C150.362 135.41 144.134 136.938 138.083 139.489C126.944 144.181 117.583 151.351 113.505 158.313C111.148 162.335 111.296 164.858 114.059 167.745C115.285 169.02 116.201 169.676 117.478 170.175C118.12 170.432 118.561 170.489 119.804 170.496C121.216 170.496 121.397 170.467 122.072 170.111C122.476 169.897 123.346 169.241 124.007 168.65C128.127 164.972 131.59 162.243 133.208 161.395C134.47 160.732 136.301 160.197 138.118 159.964C139.979 159.725 143.3 159.866 144.725 160.24C152.002 162.179 155.722 169.619 153.826 178.456C152.857 182.961 150.769 187.443 146.514 194.143C141.889 201.433 136.037 208.795 128.255 217.119C126.872 218.602 122.965 222.621 119.572 226.064C111.954 233.789 111.26 234.594 111.055 235.949C110.979 236.447 111.009 236.54 111.299 236.747C111.48 236.868 112.042 237.082 112.548 237.21C113.394 237.431 116.115 237.452 146.749 237.524C179.647 237.602 178.905 237.602 179.554 237.887C179.981 238.065 180.537 238.5 181.1 239.099C181.813 239.847 182.034 240.189 182.226 240.845C182.932 243.218 181.492 245.491 179.162 245.691C178.506 245.748 178.2 245.691 177.48 245.392L176.61 245.021H146.45C124.922 245.021 114.616 244.971 113.441 244.864C108.432 244.408 105.446 242.398 104.245 238.664C103.919 237.645 103.918 235.179 104.243 233.86C104.51 232.77 105.208 231.159 105.818 230.219C106.681 228.893 108.712 226.698 114.643 220.69C126.51 208.667 131.989 202.431 137.498 194.656C143.271 186.517 146.471 180.195 147.113 175.663C147.626 172.064 146.571 169.206 144.297 168.023C143.15 167.431 142.181 167.274 140.15 167.36C138.24 167.445 137.22 167.631 136.415 168.058C135.382 168.6 132.203 171.151 128.875 174.102C126.086 176.575 124.622 177.394 122.216 177.829C117.555 178.67 113.132 177.159 109.409 173.446C103.86 167.916 103.297 161.266 107.756 153.917C111.746 147.343 118.932 141.105 128.54 135.873C137.641 130.92 146.592 128.224 157.425 127.175C159.862 126.939 167.403 126.942 170.296 127.18C177.622 127.782 184.215 129.333 189.831 131.776C191.698 132.589 194.905 134.301 196.245 135.201C200.621 138.137 204.084 142.248 206.443 147.301C208.482 151.65 209.344 155.494 209.344 160.183C209.351 165.478 208.254 170.04 205.659 175.513C201.961 183.31 196.117 190.558 186.039 199.851C181.785 203.771 179.568 206.415 179.568 207.577C179.568 208.296 181.143 209.494 182.519 209.836C183.374 210.042 185.483 210.014 186.709 209.779C188.669 209.394 189.767 209.002 191.449 208.061C193.024 207.177 194.257 206.173 196.822 203.657C199.587 200.942 200.115 200.485 201.191 199.887C203.379 198.668 206.301 198.518 209.073 199.473C211.674 200.371 213.649 202.324 215.045 205.389C216.321 208.189 216.827 210.841 217.005 215.708C217.397 226.342 213.449 238.35 206.85 246.575C203.685 250.523 200.307 252.839 196.444 253.723C195.283 253.987 192.703 254.086 191.648 253.915Z" fill="#F299EE"/>
<path d="M191.648 253.915C189.018 253.473 186.944 252.048 185.141 249.425C183.752 247.408 183.666 247.223 183.602 246.019C183.559 245.171 183.602 244.814 183.809 244.308C184.158 243.46 184.806 242.79 185.69 242.363C186.289 242.07 186.545 242.028 187.251 242.085C188.619 242.206 189.403 242.819 190.686 244.757C191.548 246.069 191.947 246.389 192.874 246.51C194.442 246.717 196.494 246.119 198.191 244.95C198.625 244.643 199.587 243.76 200.321 242.983C203.806 239.284 206.664 233.932 208.389 227.874C209.693 223.306 210.171 218.987 209.871 214.561C209.643 211.19 209.109 209.03 208.182 207.691C207.534 206.75 206.835 206.401 205.581 206.386C204.384 206.379 204.626 206.215 201.633 209.144C199.053 211.682 198.183 212.43 196.509 213.592C192.81 216.15 188.648 217.469 184.293 217.469C180.48 217.469 177.423 216.229 175.1 213.741C173.489 212.017 172.684 210.199 172.541 207.997C172.292 204.084 174.537 200.542 181.107 194.47C186.845 189.161 190.045 185.826 193.081 181.963C201.825 170.866 204.334 160.981 200.699 151.942C199.523 149.018 197.77 146.324 195.668 144.194C190.707 139.172 181.222 135.648 170.032 134.668C167.41 134.437 159.984 134.432 157.76 134.658C150.362 135.41 144.134 136.938 138.083 139.489C126.944 144.181 117.583 151.351 113.505 158.313C111.148 162.335 111.296 164.858 114.059 167.745C115.285 169.02 116.201 169.676 117.478 170.175C118.12 170.432 118.561 170.489 119.804 170.496C121.216 170.496 121.397 170.467 122.072 170.111C122.476 169.897 123.346 169.241 124.007 168.65C128.127 164.972 131.59 162.243 133.208 161.395C134.47 160.732 136.301 160.197 138.118 159.964C139.979 159.725 143.3 159.866 144.725 160.24C152.002 162.179 155.722 169.619 153.826 178.456C152.857 182.961 150.769 187.443 146.514 194.143C141.889 201.433 136.037 208.795 128.255 217.119C126.872 218.602 122.965 222.621 119.572 226.064C111.954 233.789 111.26 234.594 111.055 235.949C110.979 236.447 111.009 236.54 111.299 236.747C111.48 236.868 112.042 237.082 112.548 237.21C113.394 237.431 116.115 237.452 146.749 237.524C179.647 237.602 178.905 237.602 179.554 237.887C179.981 238.065 180.537 238.5 181.1 239.099C181.813 239.847 182.034 240.189 182.226 240.845C182.932 243.218 181.492 245.491 179.162 245.691C178.506 245.748 178.2 245.691 177.48 245.392L176.61 245.021H146.45C124.922 245.021 114.616 244.971 113.441 244.864C108.432 244.408 105.446 242.398 104.245 238.664C103.919 237.645 103.918 235.179 104.243 233.86C104.51 232.77 105.208 231.159 105.818 230.219C106.681 228.893 108.712 226.698 114.643 220.69C126.51 208.667 131.989 202.431 137.498 194.656C143.271 186.517 146.471 180.195 147.113 175.663C147.626 172.064 146.571 169.206 144.297 168.023C143.15 167.431 142.181 167.274 140.15 167.36C138.24 167.445 137.22 167.631 136.415 168.058C135.382 168.6 132.203 171.151 128.875 174.102C126.086 176.575 124.622 177.394 122.216 177.829C117.555 178.67 113.132 177.159 109.409 173.446C103.86 167.916 103.297 161.266 107.756 153.917C111.746 147.343 118.932 141.105 128.54 135.873C137.641 130.92 146.592 128.224 157.425 127.175C159.862 126.939 167.403 126.942 170.296 127.18C177.622 127.782 184.215 129.333 189.831 131.776C191.698 132.589 194.905 134.301 196.245 135.201C200.621 138.137 204.084 142.248 206.443 147.301C208.482 151.65 209.344 155.494 209.344 160.183C209.351 165.478 208.254 170.04 205.659 175.513C201.961 183.31 196.117 190.558 186.039 199.851C181.785 203.771 179.568 206.415 179.568 207.577C179.568 208.296 181.143 209.494 182.519 209.836C183.374 210.042 185.483 210.014 186.709 209.779C188.669 209.394 189.767 209.002 191.449 208.061C193.024 207.177 194.257 206.173 196.822 203.657C199.587 200.942 200.115 200.485 201.191 199.887C203.379 198.668 206.301 198.518 209.073 199.473C211.674 200.371 213.649 202.324 215.045 205.389C216.321 208.189 216.827 210.841 217.005 215.708C217.397 226.342 213.449 238.35 206.85 246.575C203.685 250.523 200.307 252.839 196.444 253.723C195.283 253.987 192.703 254.086 191.648 253.915Z" stroke="#F299EE" stroke-width="1.98"/>
</g>
<path d="M55.6119 391.843C44.2201 391.308 32.8035 388.985 25.1359 385.647C19.862 383.355 16.5405 379.932 15.3603 375.572C14.8786 373.791 14.8802 370.701 15.3634 368.92C16.556 364.521 20.2191 360.726 24.6333 359.332C28.3738 358.14 30.5019 358.271 39.8786 360.246C45.645 361.462 45.5753 361.454 47.8444 361.632C53.6139 362.082 58.8335 361.617 62.8218 360.308C68.2815 358.512 72.7964 354.361 73.9348 350.078C74.2755 348.793 74.2755 346.345 73.927 345.068C73.1526 342.202 70.9687 339.739 67.7858 338.152C65.238 336.882 62.8218 336.332 59.1665 336.2L56.6806 336.115L54.365 337.037C50.8801 338.431 50.1367 338.632 48.0922 338.725C46.5898 338.795 46.0942 338.748 44.9867 338.477C42.2917 337.803 39.7346 336.193 37.8682 333.985C36.4928 332.367 33.5485 327.047 32.8221 324.878C32.3218 323.384 32.1413 320.882 32.4263 319.395C32.7423 317.754 33.9365 315.554 35.2979 314.106C37.2371 312.046 39.1677 310.946 43.5231 309.452C47.31 308.143 49.6643 306.881 52.2199 304.774C56.6883 301.08 58.3456 298.162 57.8654 294.797C57.5789 292.719 56.6961 291.109 55.0001 289.537C53.7532 288.382 52.5297 287.645 50.9576 287.109C49.8889 286.743 49.4242 286.678 47.4649 286.622C43.6238 286.512 42.7719 286.763 36.7786 289.749C32.4914 291.887 32.0995 292.045 30.7172 292.187C29.516 292.31 25.6671 291.925 24.7053 291.586C21.661 290.511 18.7995 286.378 17.792 281.602C17.4458 279.959 17.4365 277.169 17.7734 275.77C18.1552 274.184 19.385 271.832 20.6225 270.323C27.01 262.528 44.0419 256.038 62.7443 254.27C66.1286 253.949 74.655 253.904 77.9308 254.189C84.5367 254.762 89.9035 255.724 95.2702 257.297C99.5296 258.546 104.455 260.515 107.196 262.066C113.601 265.683 118.278 271.849 119.711 278.579C120.129 280.54 120.269 283.801 120.021 285.76C119.44 290.377 117.504 294.853 114.476 298.602C112.385 301.189 107.948 304.139 106.863 304.557C103.959 305.665 101.071 303.822 101.086 300.871C101.094 299.307 101.737 298.343 104.075 296.404C105.121 295.537 107.723 294.01 108.614 292.818C108.985 292.318 109.62 291.303 110.015 290.561C112.95 285.046 112.532 279.052 108.885 274.219C106.159 270.613 103.208 268.703 96.6874 266.334C84.1185 261.769 68.7771 260.836 53.9856 263.738C46.4427 265.218 39.867 267.348 34.6861 269.993C29.6121 272.583 26.5252 275.181 25.8507 277.43C25.4247 278.849 25.9227 281.153 27.0588 283.027C27.5722 283.875 27.6381 283.908 29.0018 284.042C29.8111 284.121 29.8994 284.086 33.4191 282.313C37.584 280.215 39.6254 279.391 41.8968 278.891C43.345 278.572 43.9103 278.533 47.008 278.54C50.7795 278.547 51.7785 278.695 54.2334 279.608C58.6399 281.25 62.6049 284.794 64.5333 288.815C67.0579 294.074 66.6474 299.903 63.3948 304.782C61.8537 307.105 59.213 309.754 56.2004 312.007C53.1724 314.269 50.6013 315.601 46.4659 317.049C43.345 318.148 42.4621 318.559 41.6172 319.333C39.9476 320.859 40.0513 321.68 42.4544 325.993C43.9722 328.704 44.6692 329.533 46.0012 330.183C47.403 330.865 48.1077 330.779 51.1202 329.564C54.3418 328.255 55.395 328.022 58.1752 328.022C65.7956 328.022 72.0529 330.206 76.684 334.489C79.6423 337.238 81.5319 340.638 82.2057 344.44C82.4999 346.098 82.4612 349.459 82.136 351.007C81.2686 355.081 79.5416 358.132 76.2348 361.408C70.0239 367.565 62.21 370.151 50.6555 369.865C46.009 369.748 44.4756 369.563 39.8012 368.556C32.7237 367.03 30.1952 366.62 28.699 366.744C25.9196 366.976 23.4987 369.152 23.1952 371.692C22.7545 375.379 25.9746 377.833 34.5312 380.335C49.1686 384.625 69.598 385.043 86.4573 381.411C96.4551 379.251 106.182 375.193 112.424 370.569C119.572 365.272 125.179 357.799 127.765 350.125C130.034 343.379 130.212 335.379 128.222 329.509C126.588 324.661 123.405 321.006 118.542 318.389C115.808 316.917 112.749 315.848 108.552 314.896C107.127 314.578 105.888 314.199 105.5 313.982C104.23 313.239 103.557 312.085 103.533 310.606C103.518 309.467 103.781 308.677 104.408 307.965C105.988 306.184 107.452 306.129 113.059 307.624C123.684 310.451 130.863 315.763 134.681 323.639C138.987 332.499 138.855 345.145 134.363 355.878C131.343 363.081 125.481 370.686 118.999 375.82C104.641 387.173 81.3693 393.059 55.6119 391.843V391.843Z" fill="#01A5D0" stroke="#1BB5DB" stroke-width="1.8"/>
<g filter="url(#filter1_f_2_54)">
<path d="M55.6119 391.843C44.2201 391.308 32.8035 388.985 25.1359 385.647C19.862 383.355 16.5405 379.932 15.3603 375.572C14.8786 373.791 14.8802 370.701 15.3634 368.92C16.556 364.521 20.2191 360.726 24.6333 359.332C28.3738 358.14 30.5019 358.271 39.8786 360.246C45.645 361.462 45.5753 361.454 47.8444 361.632C53.6139 362.082 58.8335 361.617 62.8218 360.308C68.2815 358.512 72.7964 354.361 73.9348 350.078C74.2755 348.793 74.2755 346.345 73.927 345.068C73.1526 342.202 70.9687 339.739 67.7858 338.152C65.238 336.882 62.8218 336.332 59.1665 336.2L56.6806 336.115L54.365 337.037C50.8801 338.431 50.1367 338.632 48.0922 338.725C46.5898 338.795 46.0942 338.748 44.9867 338.477C42.2917 337.803 39.7346 336.193 37.8682 333.985C36.4928 332.367 33.5485 327.047 32.8221 324.878C32.3218 323.384 32.1413 320.882 32.4263 319.395C32.7423 317.754 33.9365 315.554 35.2979 314.106C37.2371 312.046 39.1677 310.946 43.5231 309.452C47.31 308.143 49.6643 306.881 52.2199 304.774C56.6883 301.08 58.3456 298.162 57.8654 294.797C57.5789 292.719 56.6961 291.109 55.0001 289.537C53.7532 288.382 52.5297 287.645 50.9576 287.109C49.8889 286.743 49.4242 286.678 47.4649 286.622C43.6238 286.512 42.7719 286.763 36.7786 289.749C32.4914 291.887 32.0995 292.045 30.7172 292.187C29.516 292.31 25.6671 291.925 24.7053 291.586C21.661 290.511 18.7995 286.378 17.792 281.602C17.4458 279.959 17.4365 277.169 17.7734 275.77C18.1552 274.184 19.385 271.832 20.6225 270.323C27.01 262.528 44.0419 256.038 62.7443 254.27C66.1286 253.949 74.655 253.904 77.9308 254.189C84.5367 254.762 89.9035 255.724 95.2702 257.297C99.5296 258.546 104.455 260.515 107.196 262.066C113.601 265.683 118.278 271.849 119.711 278.579C120.129 280.54 120.269 283.801 120.021 285.76C119.44 290.377 117.504 294.853 114.476 298.602C112.385 301.189 107.948 304.139 106.863 304.557C103.959 305.665 101.071 303.822 101.086 300.871C101.094 299.307 101.737 298.343 104.075 296.404C105.121 295.537 107.723 294.01 108.614 292.818C108.985 292.318 109.62 291.303 110.015 290.561C112.95 285.046 112.532 279.052 108.885 274.219C106.159 270.613 103.208 268.703 96.6874 266.334C84.1185 261.769 68.7771 260.836 53.9856 263.738C46.4427 265.218 39.867 267.348 34.6861 269.993C29.6121 272.583 26.5252 275.181 25.8507 277.43C25.4247 278.849 25.9227 281.153 27.0588 283.027C27.5722 283.875 27.6381 283.908 29.0018 284.042C29.8111 284.121 29.8994 284.086 33.4191 282.313C37.584 280.215 39.6254 279.391 41.8968 278.891C43.345 278.572 43.9103 278.533 47.008 278.54C50.7795 278.547 51.7785 278.695 54.2334 279.608C58.6399 281.25 62.6049 284.794 64.5333 288.815C67.0579 294.074 66.6474 299.903 63.3948 304.782C61.8537 307.105 59.213 309.754 56.2004 312.007C53.1724 314.269 50.6013 315.601 46.4659 317.049C43.345 318.148 42.4621 318.559 41.6172 319.333C39.9476 320.859 40.0513 321.68 42.4544 325.993C43.9722 328.704 44.6692 329.533 46.0012 330.183C47.403 330.865 48.1077 330.779 51.1202 329.564C54.3418 328.255 55.395 328.022 58.1752 328.022C65.7956 328.022 72.0529 330.206 76.684 334.489C79.6423 337.238 81.5319 340.638 82.2057 344.44C82.4999 346.098 82.4612 349.459 82.136 351.007C81.2686 355.081 79.5416 358.132 76.2348 361.408C70.0239 367.565 62.21 370.151 50.6555 369.865C46.009 369.748 44.4756 369.563 39.8012 368.556C32.7237 367.03 30.1952 366.62 28.699 366.744C25.9196 366.976 23.4987 369.152 23.1952 371.692C22.7545 375.379 25.9746 377.833 34.5312 380.335C49.1686 384.625 69.598 385.043 86.4573 381.411C96.4551 379.251 106.182 375.193 112.424 370.569C119.572 365.272 125.179 357.799 127.765 350.125C130.034 343.379 130.212 335.379 128.222 329.509C126.588 324.661 123.405 321.006 118.542 318.389C115.808 316.917 112.749 315.848 108.552 314.896C107.127 314.578 105.888 314.199 105.5 313.982C104.23 313.239 103.557 312.085 103.533 310.606C103.518 309.467 103.781 308.677 104.408 307.965C105.988 306.184 107.452 306.129 113.059 307.624C123.684 310.451 130.863 315.763 134.681 323.639C138.987 332.499 138.855 345.145 134.363 355.878C131.343 363.081 125.481 370.686 118.999 375.82C104.641 387.173 81.3693 393.059 55.6119 391.843V391.843Z" fill="#01A5D0"/>
<path d="M55.6119 391.843C44.2201 391.308 32.8035 388.985 25.1359 385.647C19.862 383.355 16.5405 379.932 15.3603 375.572C14.8786 373.791 14.8802 370.701 15.3634 368.92C16.556 364.521 20.2191 360.726 24.6333 359.332C28.3738 358.14 30.5019 358.271 39.8786 360.246C45.645 361.462 45.5753 361.454 47.8444 361.632C53.6139 362.082 58.8335 361.617 62.8218 360.308C68.2815 358.512 72.7964 354.361 73.9348 350.078C74.2755 348.793 74.2755 346.345 73.927 345.068C73.1526 342.202 70.9687 339.739 67.7858 338.152C65.238 336.882 62.8218 336.332 59.1665 336.2L56.6806 336.115L54.365 337.037C50.8801 338.431 50.1367 338.632 48.0922 338.725C46.5898 338.795 46.0942 338.748 44.9867 338.477C42.2917 337.803 39.7346 336.193 37.8682 333.985C36.4928 332.367 33.5485 327.047 32.8221 324.878C32.3218 323.384 32.1413 320.882 32.4263 319.395C32.7423 317.754 33.9365 315.554 35.2979 314.106C37.2371 312.046 39.1677 310.946 43.5231 309.452C47.31 308.143 49.6643 306.881 52.2199 304.774C56.6883 301.08 58.3456 298.162 57.8654 294.797C57.5789 292.719 56.6961 291.109 55.0001 289.537C53.7532 288.382 52.5297 287.645 50.9576 287.109C49.8889 286.743 49.4242 286.678 47.4649 286.622C43.6238 286.512 42.7719 286.763 36.7786 289.749C32.4914 291.887 32.0995 292.045 30.7172 292.187C29.516 292.31 25.6671 291.925 24.7053 291.586C21.661 290.511 18.7995 286.378 17.792 281.602C17.4458 279.959 17.4365 277.169 17.7734 275.77C18.1552 274.184 19.385 271.832 20.6225 270.323C27.01 262.528 44.0419 256.038 62.7443 254.27C66.1286 253.949 74.655 253.904 77.9308 254.189C84.5367 254.762 89.9035 255.724 95.2702 257.297C99.5296 258.546 104.455 260.515 107.196 262.066C113.601 265.683 118.278 271.849 119.711 278.579C120.129 280.54 120.269 283.801 120.021 285.76C119.44 290.377 117.504 294.853 114.476 298.602C112.385 301.189 107.948 304.139 106.863 304.557C103.959 305.665 101.071 303.822 101.086 300.871C101.094 299.307 101.737 298.343 104.075 296.404C105.121 295.537 107.723 294.01 108.614 292.818C108.985 292.318 109.62 291.303 110.015 290.561C112.95 285.046 112.532 279.052 108.885 274.219C106.159 270.613 103.208 268.703 96.6874 266.334C84.1185 261.769 68.7771 260.836 53.9856 263.738C46.4427 265.218 39.867 267.348 34.6861 269.993C29.6121 272.583 26.5252 275.181 25.8507 277.43C25.4247 278.849 25.9227 281.153 27.0588 283.027C27.5722 283.875 27.6381 283.908 29.0018 284.042C29.8111 284.121 29.8994 284.086 33.4191 282.313C37.584 280.215 39.6254 279.391 41.8968 278.891C43.345 278.572 43.9103 278.533 47.008 278.54C50.7795 278.547 51.7785 278.695 54.2334 279.608C58.6399 281.25 62.6049 284.794 64.5333 288.815C67.0579 294.074 66.6474 299.903 63.3948 304.782C61.8537 307.105 59.213 309.754 56.2004 312.007C53.1724 314.269 50.6013 315.601 46.4659 317.049C43.345 318.148 42.4621 318.559 41.6172 319.333C39.9476 320.859 40.0513 321.68 42.4544 325.993C43.9722 328.704 44.6692 329.533 46.0012 330.183C47.403 330.865 48.1077 330.779 51.1202 329.564C54.3418 328.255 55.395 328.022 58.1752 328.022C65.7956 328.022 72.0529 330.206 76.684 334.489C79.6423 337.238 81.5319 340.638 82.2057 344.44C82.4999 346.098 82.4612 349.459 82.136 351.007C81.2686 355.081 79.5416 358.132 76.2348 361.408C70.0239 367.565 62.21 370.151 50.6555 369.865C46.009 369.748 44.4756 369.563 39.8012 368.556C32.7237 367.03 30.1952 366.62 28.699 366.744C25.9196 366.976 23.4987 369.152 23.1952 371.692C22.7545 375.379 25.9746 377.833 34.5312 380.335C49.1686 384.625 69.598 385.043 86.4573 381.411C96.4551 379.251 106.182 375.193 112.424 370.569C119.572 365.272 125.179 357.799 127.765 350.125C130.034 343.379 130.212 335.379 128.222 329.509C126.588 324.661 123.405 321.006 118.542 318.389C115.808 316.917 112.749 315.848 108.552 314.896C107.127 314.578 105.888 314.199 105.5 313.982C104.23 313.239 103.557 312.085 103.533 310.606C103.518 309.467 103.781 308.677 104.408 307.965C105.988 306.184 107.452 306.129 113.059 307.624C123.684 310.451 130.863 315.763 134.681 323.639C138.987 332.499 138.855 345.145 134.363 355.878C131.343 363.081 125.481 370.686 118.999 375.82C104.641 387.173 81.3693 393.059 55.6119 391.843V391.843Z" stroke="#01A5D0" stroke-width="1.98"/>
</g>
<path d="M50.4072 636.277C42.5046 635.923 34.7061 634.67 28.6271 632.77C21.6935 630.612 17.7153 627.139 16.6537 622.317C16.1879 620.2 16.4113 616.59 17.1678 614.016C18.3881 609.863 20.4623 607.799 23.94 607.288C27.7153 606.737 27.208 606.723 30.1906 607.418C35.2924 608.61 40.9172 609.481 44.3922 609.624C51.4899 609.91 57.2305 607.581 58.4426 603.911C58.7695 602.937 58.8307 601.364 58.5788 600.363C57.7344 596.931 53.1923 593.751 45.7684 591.374C42.3241 590.271 39.4974 589.685 31.8004 588.487C23.6023 587.207 22.5849 586.948 20.1232 585.518C17.0303 583.713 15.2652 581.037 15.0221 577.789C14.7647 574.35 16.7647 565.913 20.5754 554.371C24.7511 541.721 30.4991 527.751 33.9475 521.873C35.1399 519.841 35.5662 519.275 36.7027 518.214C38.2124 516.806 40.0415 515.935 42.7252 515.348L44.0299 515.062L78.2996 515.021C116.018 514.975 113.649 514.927 115.848 515.786C117.946 516.605 120.288 518.496 121.092 520.025C121.779 521.329 121.916 522.204 121.916 525.305C121.909 528.533 121.623 530.987 120.921 533.809C119.716 538.64 117.305 543.374 114.275 546.849C112.259 549.165 110.087 550.519 107.03 551.379L105.763 551.735L82.0653 551.807C62.6986 551.865 58.2724 551.911 57.7957 552.06C56.6857 552.41 54.8403 551.948 53.9959 551.11C53.4171 550.526 53.0221 549.517 53.0357 548.625C53.063 547.194 53.7644 546.17 55.2421 545.421C56.7947 544.637 55.8753 544.664 81.0507 544.658C95.7664 544.654 104.394 544.603 104.789 544.518C106.546 544.142 107.874 543.081 109.583 540.695C112.614 536.455 114.234 531.156 114.234 525.486V523.229L113.758 522.888C112.614 522.077 115.303 522.135 78.9942 522.14C43.5996 522.145 44.4896 522.129 42.9104 522.779C42.5522 522.927 42.081 523.265 41.8624 523.532C39.161 526.829 32.5325 542.489 27.9537 556.393C24.1845 567.84 22.2254 575.998 22.7851 577.925C23.0766 578.919 24.6231 579.934 26.4583 580.329C26.9574 580.438 30.2342 580.983 33.7412 581.541C43.8522 583.162 47.479 584.061 52.7974 586.253C58.4562 588.596 62.8553 592.008 64.7688 595.535C66.587 598.899 66.9411 602.787 65.7426 606.226C63.4886 612.682 55.5825 616.815 45.479 616.815C41.714 616.815 34.7102 615.841 29.2489 614.568C27.2979 614.112 27.1808 614.098 26.1852 614.255C25.0105 614.439 25.0282 614.425 24.5243 616.053C24.3146 616.727 24.2036 617.578 24.1498 618.906C24.0817 620.608 24.1042 620.867 24.384 621.555C25.2897 623.781 28.0422 625.293 33.8958 626.785C40.2165 628.398 46.0224 629.066 54.8267 629.182C60.8668 629.256 61.2822 629.236 68.2485 628.344C78.1498 627.071 87.3633 624.319 94.7177 620.438C97.6254 618.899 101.153 616.516 103.713 614.357C104.919 613.342 107.772 610.421 108.902 609.052C110.897 606.628 112.988 603.121 113.921 600.622C115.297 596.958 115.712 592.654 115.038 589.168C114.173 584.68 111.415 580.186 106.996 576.08C102.733 572.11 98.2383 569.604 90.4753 566.873C82.7259 564.142 74.3636 562.406 63.4477 561.255C59.0418 560.785 57.6595 561.214 56.1545 560.833C53.3966 560.145 52.1028 558.987 51.9666 557.067C51.8849 555.957 52.2322 555.147 53.1447 554.323C54.2002 553.368 55.7392 553.133 57.3599 553.677C58.5856 554.085 60.574 553.764 64.9663 554.228C77.6935 555.562 87.8944 557.939 97.4892 561.807C104.885 564.789 110.217 568.358 114.786 573.383C119.287 578.347 121.834 583.23 122.746 588.684C123.087 590.727 123.087 594.997 122.733 597.081C121.555 604.136 118.313 610.108 112.205 616.475C102.726 626.356 87.7514 633.022 69.7603 635.365C62.6986 636.291 61.5342 636.373 56.2295 636.345C53.5056 636.332 50.8839 636.304 50.4072 636.277V636.277Z" fill="#01A5D0" stroke="#1BB5DB" stroke-width="1.8" stroke-linecap="round"/>
<g filter="url(#filter2_f_2_54)">
<path d="M50.4072 636.277C42.5046 635.923 34.7061 634.67 28.6271 632.77C21.6935 630.612 17.7153 627.139 16.6537 622.317C16.1879 620.2 16.4113 616.59 17.1678 614.016C18.3881 609.863 20.4623 607.799 23.94 607.288C27.7153 606.737 27.208 606.723 30.1906 607.418C35.2924 608.61 40.9172 609.481 44.3922 609.624C51.4899 609.91 57.2305 607.581 58.4426 603.911C58.7695 602.937 58.8307 601.364 58.5788 600.363C57.7344 596.931 53.1923 593.751 45.7684 591.374C42.3241 590.271 39.4974 589.685 31.8004 588.487C23.6023 587.207 22.5849 586.948 20.1232 585.518C17.0303 583.713 15.2652 581.037 15.0221 577.789C14.7647 574.35 16.7647 565.913 20.5754 554.371C24.7511 541.721 30.4991 527.751 33.9475 521.873C35.1399 519.841 35.5662 519.275 36.7027 518.214C38.2124 516.806 40.0415 515.935 42.7252 515.348L44.0299 515.062L78.2996 515.021C116.018 514.975 113.649 514.927 115.848 515.786C117.946 516.605 120.288 518.496 121.092 520.025C121.779 521.329 121.916 522.204 121.916 525.305C121.909 528.533 121.623 530.987 120.921 533.809C119.716 538.64 117.305 543.374 114.275 546.849C112.259 549.165 110.087 550.519 107.03 551.379L105.763 551.735L82.0653 551.807C62.6986 551.865 58.2724 551.911 57.7957 552.06C56.6857 552.41 54.8403 551.948 53.9959 551.11C53.4171 550.526 53.0221 549.517 53.0357 548.625C53.063 547.194 53.7644 546.17 55.2421 545.421C56.7947 544.637 55.8753 544.664 81.0507 544.658C95.7664 544.654 104.394 544.603 104.789 544.518C106.546 544.142 107.874 543.081 109.583 540.695C112.614 536.455 114.234 531.156 114.234 525.486V523.229L113.758 522.888C112.614 522.077 115.303 522.135 78.9942 522.14C43.5996 522.145 44.4896 522.129 42.9104 522.779C42.5522 522.927 42.081 523.265 41.8624 523.532C39.161 526.829 32.5325 542.489 27.9537 556.393C24.1845 567.84 22.2254 575.998 22.7851 577.925C23.0766 578.919 24.6231 579.934 26.4583 580.329C26.9574 580.438 30.2342 580.983 33.7412 581.541C43.8522 583.162 47.479 584.061 52.7974 586.253C58.4562 588.596 62.8553 592.008 64.7688 595.535C66.587 598.899 66.9411 602.787 65.7426 606.226C63.4886 612.682 55.5825 616.815 45.479 616.815C41.714 616.815 34.7102 615.841 29.2489 614.568C27.2979 614.112 27.1808 614.098 26.1852 614.255C25.0105 614.439 25.0282 614.425 24.5243 616.053C24.3146 616.727 24.2036 617.578 24.1498 618.906C24.0817 620.608 24.1042 620.867 24.384 621.555C25.2897 623.781 28.0422 625.293 33.8958 626.785C40.2165 628.398 46.0224 629.066 54.8267 629.182C60.8668 629.256 61.2822 629.236 68.2485 628.344C78.1498 627.071 87.3633 624.319 94.7177 620.438C97.6254 618.899 101.153 616.516 103.713 614.357C104.919 613.342 107.772 610.421 108.902 609.052C110.897 606.628 112.988 603.121 113.921 600.622C115.297 596.958 115.712 592.654 115.038 589.168C114.173 584.68 111.415 580.186 106.996 576.08C102.733 572.11 98.2383 569.604 90.4753 566.873C82.7259 564.142 74.3636 562.406 63.4477 561.255C59.0418 560.785 57.6595 561.214 56.1545 560.833C53.3966 560.145 52.1028 558.987 51.9666 557.067C51.8849 555.957 52.2322 555.147 53.1447 554.323C54.2002 553.368 55.7392 553.133 57.3599 553.677C58.5856 554.085 60.574 553.764 64.9663 554.228C77.6935 555.562 87.8944 557.939 97.4892 561.807C104.885 564.789 110.217 568.358 114.786 573.383C119.287 578.347 121.834 583.23 122.746 588.684C123.087 590.727 123.087 594.997 122.733 597.081C121.555 604.136 118.313 610.108 112.205 616.475C102.726 626.356 87.7514 633.022 69.7603 635.365C62.6986 636.291 61.5342 636.373 56.2295 636.345C53.5056 636.332 50.8839 636.304 50.4072 636.277V636.277Z" fill="#01A5D0"/>
<path d="M50.4072 636.277C42.5046 635.923 34.7061 634.67 28.6271 632.77C21.6935 630.612 17.7153 627.139 16.6537 622.317C16.1879 620.2 16.4113 616.59 17.1678 614.016C18.3881 609.863 20.4623 607.799 23.94 607.288C27.7153 606.737 27.208 606.723 30.1906 607.418C35.2924 608.61 40.9172 609.481 44.3922 609.624C51.4899 609.91 57.2305 607.581 58.4426 603.911C58.7695 602.937 58.8307 601.364 58.5788 600.363C57.7344 596.931 53.1923 593.751 45.7684 591.374C42.3241 590.271 39.4974 589.685 31.8004 588.487C23.6023 587.207 22.5849 586.948 20.1232 585.518C17.0303 583.713 15.2652 581.037 15.0221 577.789C14.7647 574.35 16.7647 565.913 20.5754 554.371C24.7511 541.721 30.4991 527.751 33.9475 521.873C35.1399 519.841 35.5662 519.275 36.7027 518.214C38.2124 516.806 40.0415 515.935 42.7252 515.348L44.0299 515.062L78.2996 515.021C116.018 514.975 113.649 514.927 115.848 515.786C117.946 516.605 120.288 518.496 121.092 520.025C121.779 521.329 121.916 522.204 121.916 525.305C121.909 528.533 121.623 530.987 120.921 533.809C119.716 538.64 117.305 543.374 114.275 546.849C112.259 549.165 110.087 550.519 107.03 551.379L105.763 551.735L82.0653 551.807C62.6986 551.865 58.2724 551.911 57.7957 552.06C56.6857 552.41 54.8403 551.948 53.9959 551.11C53.4171 550.526 53.0221 549.517 53.0357 548.625C53.063 547.194 53.7644 546.17 55.2421 545.421C56.7947 544.637 55.8753 544.664 81.0507 544.658C95.7664 544.654 104.394 544.603 104.789 544.518C106.546 544.142 107.874 543.081 109.583 540.695C112.614 536.455 114.234 531.156 114.234 525.486V523.229L113.758 522.888C112.614 522.077 115.303 522.135 78.9942 522.14C43.5996 522.145 44.4896 522.129 42.9104 522.779C42.5522 522.927 42.081 523.265 41.8624 523.532C39.161 526.829 32.5325 542.489 27.9537 556.393C24.1845 567.84 22.2254 575.998 22.7851 577.925C23.0766 578.919 24.6231 579.934 26.4583 580.329C26.9574 580.438 30.2342 580.983 33.7412 581.541C43.8522 583.162 47.479 584.061 52.7974 586.253C58.4562 588.596 62.8553 592.008 64.7688 595.535C66.587 598.899 66.9411 602.787 65.7426 606.226C63.4886 612.682 55.5825 616.815 45.479 616.815C41.714 616.815 34.7102 615.841 29.2489 614.568C27.2979 614.112 27.1808 614.098 26.1852 614.255C25.0105 614.439 25.0282 614.425 24.5243 616.053C24.3146 616.727 24.2036 617.578 24.1498 618.906C24.0817 620.608 24.1042 620.867 24.384 621.555C25.2897 623.781 28.0422 625.293 33.8958 626.785C40.2165 628.398 46.0224 629.066 54.8267 629.182C60.8668 629.256 61.2822 629.236 68.2485 628.344C78.1498 627.071 87.3633 624.319 94.7177 620.438C97.6254 618.899 101.153 616.516 103.713 614.357C104.919 613.342 107.772 610.421 108.902 609.052C110.897 606.628 112.988 603.121 113.921 600.622C115.297 596.958 115.712 592.654 115.038 589.168C114.173 584.68 111.415 580.186 106.996 576.08C102.733 572.11 98.2383 569.604 90.4753 566.873C82.7259 564.142 74.3636 562.406 63.4477 561.255C59.0418 560.785 57.6595 561.214 56.1545 560.833C53.3966 560.145 52.1028 558.987 51.9666 557.067C51.8849 555.957 52.2322 555.147 53.1447 554.323C54.2002 553.368 55.7392 553.133 57.3599 553.677C58.5856 554.085 60.574 553.764 64.9663 554.228C77.6935 555.562 87.8944 557.939 97.4892 561.807C104.885 564.789 110.217 568.358 114.786 573.383C119.287 578.347 121.834 583.23 122.746 588.684C123.087 590.727 123.087 594.997 122.733 597.081C121.555 604.136 118.313 610.108 112.205 616.475C102.726 626.356 87.7514 633.022 69.7603 635.365C62.6986 636.291 61.5342 636.373 56.2295 636.345C53.5056 636.332 50.8839 636.304 50.4072 636.277V636.277Z" stroke="#01A5D0" stroke-width="1.98" stroke-linecap="round"/>
</g>
<path d="M132.37 508.516C121.118 504.789 112.662 499.787 105.654 492.721C100.327 487.355 95.9259 480.363 93.2392 473.007C90.5198 465.564 89.1442 455.862 89.6332 447.57C90.0933 439.761 91.8554 432.727 95.2271 425.247C100.006 414.648 107.757 404.673 118.501 395.302C127.363 387.574 140.352 378.63 146.479 376.037C149.475 374.769 152.791 374.027 155.257 374.074C156.972 374.106 160.083 375.012 162.506 376.184C166.146 377.946 171.583 381.209 174.45 383.352C178.061 386.05 180.752 388.905 181.661 391.003C182.513 392.958 182.574 394.59 181.909 397.071C181.431 398.859 180.914 399.812 179.603 401.312C178.211 402.904 176.579 404.123 172.797 406.402C166.386 410.259 162.952 412.951 159.441 416.843C157.681 418.806 157 419.93 156.2 422.239C155.376 424.604 154.837 425.29 153.344 425.871C151.059 426.754 148.445 425.175 148.083 422.69C147.969 421.876 148.001 421.695 148.616 419.728C149.647 416.411 150.793 414.464 153.421 411.535C157.631 406.861 161.439 403.865 168.851 399.405C170.519 398.403 172.343 397.175 172.911 396.678C173.833 395.867 173.967 395.69 174.158 394.979L174.371 394.184L173.553 393.282C171.227 390.716 167.527 388.052 162.089 385.029C158.338 382.941 156.382 382.154 154.915 382.137C150.776 382.091 144.134 385.706 132.72 394.217C124.574 400.292 119.442 404.901 114.297 410.768C110.298 415.326 107.725 418.891 105.183 423.398C102.364 428.393 100.84 432.089 99.4044 437.415C97.7821 443.434 97.2805 448.464 97.6777 454.724C98.9427 474.685 109.118 489.639 127.005 497.841C136.746 502.31 147.808 504.562 157.025 503.963C164.317 503.489 170.133 501.709 176.572 497.985C185.465 492.839 192.813 485.072 196.977 476.412C198.179 473.902 198.886 471.941 199.764 468.696C200.646 465.405 200.862 464.126 201.023 461.045C201.445 452.917 198.648 445.437 192.583 438.497C192.029 437.85 190.729 436.592 189.714 435.687C183.012 429.765 175.33 428.091 164.333 428.752C161.601 428.914 161.128 428.906 160.423 428.646C158.397 427.913 157.364 425.952 157.92 423.879C158.289 422.5 159.297 421.514 160.803 421.059C161.397 420.878 164.816 420.602 166.737 420.578C171.546 420.518 177.32 420.547 180.86 421.707C188.699 424.273 194.621 428.294 199.751 434.532C206.69 442.965 209.836 452.682 208.953 463.004C208.622 466.925 207.252 472.6 205.7 476.471C201.963 485.815 195.583 494.071 186.991 500.69C174.761 510.115 160.678 513.705 144.917 511.427C141.096 510.87 135.711 509.625 132.37 508.516V508.516ZM151.317 484.709C150.67 484.172 150.03 483.107 149.874 482.33C149.702 481.469 150.178 479.69 150.749 479.036C150.975 478.781 151.715 478.204 152.39 477.752C153.84 476.796 154.909 475.817 155.358 475.028C155.591 474.631 155.767 473.975 155.98 472.766C156.688 468.764 156.629 465.031 155.803 460.586C155.251 457.631 154.564 455.588 153.488 453.702C152.114 451.301 150.686 450.136 148.558 449.668C147.099 449.356 146.095 449.53 145.074 450.301C143.535 451.439 142.716 452.991 141.991 456.11C141.562 457.949 141.474 458.629 141.469 460.123C141.461 462.96 141.843 465.222 142.857 468.317C143.927 471.585 143.915 472.808 145.828 474.554C147.83 476.38 148.326 477.541 147.846 479.303C147.504 480.548 146.9 481.359 145.962 481.819C144.814 482.382 144.326 482.433 143.049 482.091C141.994 481.808 141.779 481.695 140.879 480.924C138.664 479.033 137.946 477.259 136.717 474.612C134.667 470.219 133.379 464.488 133.44 460.012C133.491 455.628 134.758 450.843 136.67 447.78C139.119 443.865 143.038 441.546 147.373 441.457C148.453 441.439 148.937 441.521 150.957 442.07C153.706 442.822 154.749 443.355 156.644 444.993C158.052 446.201 158.639 446.873 159.766 448.543C164.097 454.987 165.733 467.123 163.465 475.974C162.859 478.351 162.289 479.447 160.81 481.1C158.982 483.141 155.972 485.253 154.528 485.506C153.498 485.689 152.051 485.333 151.317 484.709V484.709Z" fill="#F299EE" stroke="#EED1F6" stroke-width="1.8"/>
<g filter="url(#filter3_f_2_54)">
<path d="M132.37 508.516C121.118 504.789 112.662 499.787 105.654 492.721C100.327 487.355 95.9259 480.363 93.2392 473.007C90.5198 465.564 89.1442 455.862 89.6332 447.57C90.0933 439.761 91.8554 432.727 95.2271 425.247C100.006 414.648 107.757 404.673 118.501 395.302C127.363 387.574 140.352 378.63 146.479 376.037C149.475 374.769 152.791 374.027 155.257 374.074C156.972 374.106 160.083 375.012 162.506 376.184C166.146 377.946 171.583 381.209 174.45 383.352C178.061 386.05 180.752 388.905 181.661 391.003C182.513 392.958 182.574 394.59 181.909 397.071C181.431 398.859 180.914 399.812 179.603 401.312C178.211 402.904 176.579 404.123 172.797 406.402C166.386 410.259 162.952 412.951 159.441 416.843C157.681 418.806 157 419.93 156.2 422.239C155.376 424.604 154.837 425.29 153.344 425.871C151.059 426.754 148.445 425.175 148.083 422.69C147.969 421.876 148.001 421.695 148.616 419.728C149.647 416.411 150.793 414.464 153.421 411.535C157.631 406.861 161.439 403.865 168.851 399.405C170.519 398.403 172.343 397.175 172.911 396.678C173.833 395.867 173.967 395.69 174.158 394.979L174.371 394.184L173.553 393.282C171.227 390.716 167.527 388.052 162.089 385.029C158.338 382.941 156.382 382.154 154.915 382.137C150.776 382.091 144.134 385.706 132.72 394.217C124.574 400.292 119.442 404.901 114.297 410.768C110.298 415.326 107.725 418.891 105.183 423.398C102.364 428.393 100.84 432.089 99.4044 437.415C97.7821 443.434 97.2805 448.464 97.6777 454.724C98.9427 474.685 109.118 489.639 127.005 497.841C136.746 502.31 147.808 504.562 157.025 503.963C164.317 503.489 170.133 501.709 176.572 497.985C185.465 492.839 192.813 485.072 196.977 476.412C198.179 473.902 198.886 471.941 199.764 468.696C200.646 465.405 200.862 464.126 201.023 461.045C201.445 452.917 198.648 445.437 192.583 438.497C192.029 437.85 190.729 436.592 189.714 435.687C183.012 429.765 175.33 428.091 164.333 428.752C161.601 428.914 161.128 428.906 160.423 428.646C158.397 427.913 157.364 425.952 157.92 423.879C158.289 422.5 159.297 421.514 160.803 421.059C161.397 420.878 164.816 420.602 166.737 420.578C171.546 420.518 177.32 420.547 180.86 421.707C188.699 424.273 194.621 428.294 199.751 434.532C206.69 442.965 209.836 452.682 208.953 463.004C208.622 466.925 207.252 472.6 205.7 476.471C201.963 485.815 195.583 494.071 186.991 500.69C174.761 510.115 160.678 513.705 144.917 511.427C141.096 510.87 135.711 509.625 132.37 508.516V508.516ZM151.317 484.709C150.67 484.172 150.03 483.107 149.874 482.33C149.702 481.469 150.178 479.69 150.749 479.036C150.975 478.781 151.715 478.204 152.39 477.752C153.84 476.796 154.909 475.817 155.358 475.028C155.591 474.631 155.767 473.975 155.98 472.766C156.688 468.764 156.629 465.031 155.803 460.586C155.251 457.631 154.564 455.588 153.488 453.702C152.114 451.301 150.686 450.136 148.558 449.668C147.099 449.356 146.095 449.53 145.074 450.301C143.535 451.439 142.716 452.991 141.991 456.11C141.562 457.949 141.474 458.629 141.469 460.123C141.461 462.96 141.843 465.222 142.857 468.317C143.927 471.585 143.915 472.808 145.828 474.554C147.83 476.38 148.326 477.541 147.846 479.303C147.504 480.548 146.9 481.359 145.962 481.819C144.814 482.382 144.326 482.433 143.049 482.091C141.994 481.808 141.779 481.695 140.879 480.924C138.664 479.033 137.946 477.259 136.717 474.612C134.667 470.219 133.379 464.488 133.44 460.012C133.491 455.628 134.758 450.843 136.67 447.78C139.119 443.865 143.038 441.546 147.373 441.457C148.453 441.439 148.937 441.521 150.957 442.07C153.706 442.822 154.749 443.355 156.644 444.993C158.052 446.201 158.639 446.873 159.766 448.543C164.097 454.987 165.733 467.123 163.465 475.974C162.859 478.351 162.289 479.447 160.81 481.1C158.982 483.141 155.972 485.253 154.528 485.506C153.498 485.689 152.051 485.333 151.317 484.709V484.709Z" fill="#F299EE"/>
<path d="M132.37 508.516C121.118 504.789 112.662 499.787 105.654 492.721C100.327 487.355 95.9259 480.363 93.2392 473.007C90.5198 465.564 89.1442 455.862 89.6332 447.57C90.0933 439.761 91.8554 432.727 95.2271 425.247C100.006 414.648 107.757 404.673 118.501 395.302C127.363 387.574 140.352 378.63 146.479 376.037C149.475 374.769 152.791 374.027 155.257 374.074C156.972 374.106 160.083 375.012 162.506 376.184C166.146 377.946 171.583 381.209 174.45 383.352C178.061 386.05 180.752 388.905 181.661 391.003C182.513 392.958 182.574 394.59 181.909 397.071C181.431 398.859 180.914 399.812 179.603 401.312C178.211 402.904 176.579 404.123 172.797 406.402C166.386 410.259 162.952 412.951 159.441 416.843C157.681 418.806 157 419.93 156.2 422.239C155.376 424.604 154.837 425.29 153.344 425.871C151.059 426.754 148.445 425.175 148.083 422.69C147.969 421.876 148.001 421.695 148.616 419.728C149.647 416.411 150.793 414.464 153.421 411.535C157.631 406.861 161.439 403.865 168.851 399.405C170.519 398.403 172.343 397.175 172.911 396.678C173.833 395.867 173.967 395.69 174.158 394.979L174.371 394.184L173.553 393.282C171.227 390.716 167.527 388.052 162.089 385.029C158.338 382.941 156.382 382.154 154.915 382.137C150.776 382.091 144.134 385.706 132.72 394.217C124.574 400.292 119.442 404.901 114.297 410.768C110.298 415.326 107.725 418.891 105.183 423.398C102.364 428.393 100.84 432.089 99.4044 437.415C97.7821 443.434 97.2805 448.464 97.6777 454.724C98.9427 474.685 109.118 489.639 127.005 497.841C136.746 502.31 147.808 504.562 157.025 503.963C164.317 503.489 170.133 501.709 176.572 497.985C185.465 492.839 192.813 485.072 196.977 476.412C198.179 473.902 198.886 471.941 199.764 468.696C200.646 465.405 200.862 464.126 201.023 461.045C201.445 452.917 198.648 445.437 192.583 438.497C192.029 437.85 190.729 436.592 189.714 435.687C183.012 429.765 175.33 428.091 164.333 428.752C161.601 428.914 161.128 428.906 160.423 428.646C158.397 427.913 157.364 425.952 157.92 423.879C158.289 422.5 159.297 421.514 160.803 421.059C161.397 420.878 164.816 420.602 166.737 420.578C171.546 420.518 177.32 420.547 180.86 421.707C188.699 424.273 194.621 428.294 199.751 434.532C206.69 442.965 209.836 452.682 208.953 463.004C208.622 466.925 207.252 472.6 205.7 476.471C201.963 485.815 195.583 494.071 186.991 500.69C174.761 510.115 160.678 513.705 144.917 511.427C141.096 510.87 135.711 509.625 132.37 508.516V508.516ZM151.317 484.709C150.67 484.172 150.03 483.107 149.874 482.33C149.702 481.469 150.178 479.69 150.749 479.036C150.975 478.781 151.715 478.204 152.39 477.752C153.84 476.796 154.909 475.817 155.358 475.028C155.591 474.631 155.767 473.975 155.98 472.766C156.688 468.764 156.629 465.031 155.803 460.586C155.251 457.631 154.564 455.588 153.488 453.702C152.114 451.301 150.686 450.136 148.558 449.668C147.099 449.356 146.095 449.53 145.074 450.301C143.535 451.439 142.716 452.991 141.991 456.11C141.562 457.949 141.474 458.629 141.469 460.123C141.461 462.96 141.843 465.222 142.857 468.317C143.927 471.585 143.915 472.808 145.828 474.554C147.83 476.38 148.326 477.541 147.846 479.303C147.504 480.548 146.9 481.359 145.962 481.819C144.814 482.382 144.326 482.433 143.049 482.091C141.994 481.808 141.779 481.695 140.879 480.924C138.664 479.033 137.946 477.259 136.717 474.612C134.667 470.219 133.379 464.488 133.44 460.012C133.491 455.628 134.758 450.843 136.67 447.78C139.119 443.865 143.038 441.546 147.373 441.457C148.453 441.439 148.937 441.521 150.957 442.07C153.706 442.822 154.749 443.355 156.644 444.993C158.052 446.201 158.639 446.873 159.766 448.543C164.097 454.987 165.733 467.123 163.465 475.974C162.859 478.351 162.289 479.447 160.81 481.1C158.982 483.141 155.972 485.253 154.528 485.506C153.498 485.689 152.051 485.333 151.317 484.709V484.709Z" stroke="#F299EE" stroke-width="1.98"/>
</g>
<path d="M91.3078 126.961C91.1256 126.936 90.56 126.848 90.0572 126.772C87.3172 126.37 83.7979 125.12 79.1411 122.907C77.3312 122.046 76.7216 121.694 76.4199 121.336C75.7538 120.532 75.5652 120.061 75.5589 119.193C75.5464 117.427 76.7781 116.12 78.676 115.875C79.4742 115.768 80.2157 116.013 82.8804 117.27C87.8388 119.608 91.4901 120.689 93.2058 120.324C94.714 120.004 96.8131 118.791 99.9553 116.416C108.081 110.263 115.283 102.74 121.656 93.7411C129.995 81.9703 134.658 71.582 136.173 61.4012C136.87 56.6815 136.851 51.9556 136.11 47.7827C134.859 40.7215 131.296 34.9969 125.489 30.704C122.548 28.5308 117.753 26.1785 112.989 24.5785C101.815 20.8248 87.4555 20.6042 75.9926 24.0117C69.61 25.9083 63.2885 29.3051 59.1514 33.0619C54.5436 37.2461 52.2008 41.7823 51.162 48.5299C50.9049 50.2022 50.9489 55.3492 51.2367 57.31C52.3805 65.0902 55.6327 71.7768 60.8168 77.0118C64.0659 80.2923 68.147 82.5045 72.6989 83.4534C76.0931 84.1573 80.178 84.3709 83.5779 84.0253C86.7767 83.7048 88.417 83.6482 89.3534 83.8305C91.4398 84.239 92.8915 85.2256 93.7525 86.8282C95.5436 90.1527 93.9536 95.4882 89.1837 102.131C87.6503 104.268 86.1232 105.99 84.1624 107.806C82.2268 109.584 81.3784 110.25 78.9023 111.897C77.0484 113.135 75.7349 114.159 75.7349 114.379C75.7349 114.618 75.207 115.492 74.8299 115.875C74.2769 116.447 73.289 116.824 72.3526 116.824C70.2448 116.824 68.7145 115.165 68.9169 113.104C69.1129 111.105 70.7211 109.264 74.434 106.794C77.1489 104.99 78.035 104.293 79.8324 102.552C83.4208 99.0703 89.9441 91.2902 86.6699 90.8377L85.1868 90.6303C80.8316 91.0702 81.768 90.8314 79.0971 90.7623C74.698 90.6491 71.5507 90.159 68.0477 89.0529C63.4161 87.5823 59.9766 85.5399 56.3328 82.0834C49.5267 75.6292 45.4299 67.2206 44.1698 57.1214C43.9423 55.2989 43.9436 49.9194 44.1724 48.156C45.5531 37.5176 50.5844 29.9052 60.2235 23.8728C67.6361 19.2336 75.9737 16.4458 85.501 15.4208C92.8538 14.6296 100.785 14.962 107.723 16.3521C116.006 18.0125 124.59 21.6003 130.045 25.6821C137.467 31.2369 141.885 38.7557 143.23 48.0938C144.437 56.5118 143.211 65.9197 139.698 75.2459C136.443 83.8745 130.737 93.5526 123.51 102.69C118.004 109.653 111.393 116.196 104.838 121.173C100.471 124.491 97.7557 126.037 95.1917 126.666C94.1987 126.911 92.0243 127.08 91.3078 126.961V126.961ZM96.26 71.249C94.337 70.9724 92.0243 70.08 91.1319 69.2819C88.9386 67.3149 90.1955 63.915 93.1995 63.6887C93.9285 63.6322 94.1673 63.6824 95.2105 64.0721C95.8578 64.3172 96.6559 64.5748 96.9827 64.644C99.5845 65.197 101.457 63.8584 101.878 61.1372C102.343 58.1835 100.867 52.1881 98.6167 47.8908C97.0079 44.8196 95.1917 43.2686 93.0486 43.1353C91.754 43.0549 91.113 43.2843 90.1766 44.1641C89.2717 45.0106 88.6558 46.0934 88.3981 47.2843C88.2033 48.1855 88.2159 52.0247 88.417 53.6336C88.6118 55.1858 89.234 56.8701 90.1012 58.2275C90.9371 59.5347 91.2199 60.3579 91.0942 61.1686C90.8365 62.8655 89.4351 64.0344 87.6754 64.0218C85.8655 64.0029 84.9605 63.2614 83.4711 60.5465C82.3273 58.4537 81.7177 56.5181 81.4161 53.9918C81.2275 52.4081 81.215 47.7155 81.3972 46.6622C81.9063 43.7487 83.3328 41.1488 85.4381 39.2792C87.6189 37.3404 89.7807 36.5215 92.7156 36.5165C97.4226 36.509 101.35 38.9618 104.178 43.6739C106.152 46.967 108.037 52.2447 108.64 56.1851C109.281 60.3642 108.992 63.0477 107.597 65.7123C106.177 68.4398 103.971 70.2246 101.074 71.0039C99.9364 71.3055 97.5106 71.4312 96.26 71.249V71.249Z" fill="#01A5D0" stroke="#1BB5DB" stroke-width="1.7831"/>
<g filter="url(#filter4_f_2_54)">
<path d="M91.3078 126.961C91.1256 126.936 90.56 126.848 90.0572 126.772C87.3172 126.37 83.7979 125.12 79.1411 122.907C77.3312 122.046 76.7216 121.694 76.4199 121.336C75.7538 120.532 75.5652 120.061 75.5589 119.193C75.5464 117.427 76.7781 116.12 78.676 115.875C79.4742 115.768 80.2157 116.013 82.8804 117.27C87.8388 119.608 91.4901 120.689 93.2058 120.324C94.714 120.004 96.8131 118.791 99.9553 116.416C108.081 110.263 115.283 102.74 121.656 93.7411C129.995 81.9703 134.658 71.582 136.173 61.4012C136.87 56.6815 136.851 51.9556 136.11 47.7827C134.859 40.7215 131.296 34.9969 125.489 30.704C122.548 28.5308 117.753 26.1785 112.989 24.5785C101.815 20.8248 87.4555 20.6042 75.9926 24.0117C69.61 25.9083 63.2885 29.3051 59.1514 33.0619C54.5436 37.2461 52.2008 41.7823 51.162 48.5299C50.9049 50.2022 50.9489 55.3492 51.2367 57.31C52.3805 65.0902 55.6327 71.7768 60.8168 77.0118C64.0659 80.2923 68.147 82.5045 72.6989 83.4534C76.0931 84.1573 80.178 84.3709 83.5779 84.0253C86.7767 83.7048 88.417 83.6482 89.3534 83.8305C91.4398 84.239 92.8915 85.2256 93.7525 86.8282C95.5436 90.1527 93.9536 95.4882 89.1837 102.131C87.6503 104.268 86.1232 105.99 84.1624 107.806C82.2268 109.584 81.3784 110.25 78.9023 111.897C77.0484 113.135 75.7349 114.159 75.7349 114.379C75.7349 114.618 75.207 115.492 74.8299 115.875C74.2769 116.447 73.289 116.824 72.3526 116.824C70.2448 116.824 68.7145 115.165 68.9169 113.104C69.1129 111.105 70.7211 109.264 74.434 106.794C77.1489 104.99 78.035 104.293 79.8324 102.552C83.4208 99.0703 89.9441 91.2902 86.6699 90.8377L85.1868 90.6303C80.8316 91.0702 81.768 90.8314 79.0971 90.7623C74.698 90.6491 71.5507 90.159 68.0477 89.0529C63.4161 87.5823 59.9766 85.5399 56.3328 82.0834C49.5267 75.6292 45.4299 67.2206 44.1698 57.1214C43.9423 55.2989 43.9436 49.9194 44.1724 48.156C45.5531 37.5176 50.5844 29.9052 60.2235 23.8728C67.6361 19.2336 75.9737 16.4458 85.501 15.4208C92.8538 14.6296 100.785 14.962 107.723 16.3521C116.006 18.0125 124.59 21.6003 130.045 25.6821C137.467 31.2369 141.885 38.7557 143.23 48.0938C144.437 56.5118 143.211 65.9197 139.698 75.2459C136.443 83.8745 130.737 93.5526 123.51 102.69C118.004 109.653 111.393 116.196 104.838 121.173C100.471 124.491 97.7557 126.037 95.1917 126.666C94.1987 126.911 92.0243 127.08 91.3078 126.961V126.961ZM96.26 71.249C94.337 70.9724 92.0243 70.08 91.1319 69.2819C88.9386 67.3149 90.1955 63.915 93.1995 63.6887C93.9285 63.6322 94.1673 63.6824 95.2105 64.0721C95.8578 64.3172 96.6559 64.5748 96.9827 64.644C99.5845 65.197 101.457 63.8584 101.878 61.1372C102.343 58.1835 100.867 52.1881 98.6167 47.8908C97.0079 44.8196 95.1917 43.2686 93.0486 43.1353C91.754 43.0549 91.113 43.2843 90.1766 44.1641C89.2717 45.0106 88.6558 46.0934 88.3981 47.2843C88.2033 48.1855 88.2159 52.0247 88.417 53.6336C88.6118 55.1858 89.234 56.8701 90.1012 58.2275C90.9371 59.5347 91.2199 60.3579 91.0942 61.1686C90.8365 62.8655 89.4351 64.0344 87.6754 64.0218C85.8655 64.0029 84.9605 63.2614 83.4711 60.5465C82.3273 58.4537 81.7177 56.5181 81.4161 53.9918C81.2275 52.4081 81.215 47.7155 81.3972 46.6622C81.9063 43.7487 83.3328 41.1488 85.4381 39.2792C87.6189 37.3404 89.7807 36.5215 92.7156 36.5165C97.4226 36.509 101.35 38.9618 104.178 43.6739C106.152 46.967 108.037 52.2447 108.64 56.1851C109.281 60.3642 108.992 63.0477 107.597 65.7123C106.177 68.4398 103.971 70.2246 101.074 71.0039C99.9364 71.3055 97.5106 71.4312 96.26 71.249V71.249Z" fill="#01A5D0"/>
<path d="M91.3078 126.961C91.1256 126.936 90.56 126.848 90.0572 126.772C87.3172 126.37 83.7979 125.12 79.1411 122.907C77.3312 122.046 76.7216 121.694 76.4199 121.336C75.7538 120.532 75.5652 120.061 75.5589 119.193C75.5464 117.427 76.7781 116.12 78.676 115.875C79.4742 115.768 80.2157 116.013 82.8804 117.27C87.8388 119.608 91.4901 120.689 93.2058 120.324C94.714 120.004 96.8131 118.791 99.9553 116.416C108.081 110.263 115.283 102.74 121.656 93.7411C129.995 81.9703 134.658 71.582 136.173 61.4012C136.87 56.6815 136.851 51.9556 136.11 47.7827C134.859 40.7215 131.296 34.9969 125.489 30.704C122.548 28.5308 117.753 26.1785 112.989 24.5785C101.815 20.8248 87.4555 20.6042 75.9926 24.0117C69.61 25.9083 63.2885 29.3051 59.1514 33.0619C54.5436 37.2461 52.2008 41.7823 51.162 48.5299C50.9049 50.2022 50.9489 55.3492 51.2367 57.31C52.3805 65.0902 55.6327 71.7768 60.8168 77.0118C64.0659 80.2923 68.147 82.5045 72.6989 83.4534C76.0931 84.1573 80.178 84.3709 83.5779 84.0253C86.7767 83.7048 88.417 83.6482 89.3534 83.8305C91.4398 84.239 92.8915 85.2256 93.7525 86.8282C95.5436 90.1527 93.9536 95.4882 89.1837 102.131C87.6503 104.268 86.1232 105.99 84.1624 107.806C82.2268 109.584 81.3784 110.25 78.9023 111.897C77.0484 113.135 75.7349 114.159 75.7349 114.379C75.7349 114.618 75.207 115.492 74.8299 115.875C74.2769 116.447 73.289 116.824 72.3526 116.824C70.2448 116.824 68.7145 115.165 68.9169 113.104C69.1129 111.105 70.7211 109.264 74.434 106.794C77.1489 104.99 78.035 104.293 79.8324 102.552C83.4208 99.0703 89.9441 91.2902 86.6699 90.8377L85.1868 90.6303C80.8316 91.0702 81.768 90.8314 79.0971 90.7623C74.698 90.6491 71.5507 90.159 68.0477 89.0529C63.4161 87.5823 59.9766 85.5399 56.3328 82.0834C49.5267 75.6292 45.4299 67.2206 44.1698 57.1214C43.9423 55.2989 43.9436 49.9194 44.1724 48.156C45.5531 37.5176 50.5844 29.9052 60.2235 23.8728C67.6361 19.2336 75.9737 16.4458 85.501 15.4208C92.8538 14.6296 100.785 14.962 107.723 16.3521C116.006 18.0125 124.59 21.6003 130.045 25.6821C137.467 31.2369 141.885 38.7557 143.23 48.0938C144.437 56.5118 143.211 65.9197 139.698 75.2459C136.443 83.8745 130.737 93.5526 123.51 102.69C118.004 109.653 111.393 116.196 104.838 121.173C100.471 124.491 97.7557 126.037 95.1917 126.666C94.1987 126.911 92.0243 127.08 91.3078 126.961V126.961ZM96.26 71.249C94.337 70.9724 92.0243 70.08 91.1319 69.2819C88.9386 67.3149 90.1955 63.915 93.1995 63.6887C93.9285 63.6322 94.1673 63.6824 95.2105 64.0721C95.8578 64.3172 96.6559 64.5748 96.9827 64.644C99.5845 65.197 101.457 63.8584 101.878 61.1372C102.343 58.1835 100.867 52.1881 98.6167 47.8908C97.0079 44.8196 95.1917 43.2686 93.0486 43.1353C91.754 43.0549 91.113 43.2843 90.1766 44.1641C89.2717 45.0106 88.6558 46.0934 88.3981 47.2843C88.2033 48.1855 88.2159 52.0247 88.417 53.6336C88.6118 55.1858 89.234 56.8701 90.1012 58.2275C90.9371 59.5347 91.2199 60.3579 91.0942 61.1686C90.8365 62.8655 89.4351 64.0344 87.6754 64.0218C85.8655 64.0029 84.9605 63.2614 83.4711 60.5465C82.3273 58.4537 81.7177 56.5181 81.4161 53.9918C81.2275 52.4081 81.215 47.7155 81.3972 46.6622C81.9063 43.7487 83.3328 41.1488 85.4381 39.2792C87.6189 37.3404 89.7807 36.5215 92.7156 36.5165C97.4226 36.509 101.35 38.9618 104.178 43.6739C106.152 46.967 108.037 52.2447 108.64 56.1851C109.281 60.3642 108.992 63.0477 107.597 65.7123C106.177 68.4398 103.971 70.2246 101.074 71.0039C99.9364 71.3055 97.5106 71.4312 96.26 71.249V71.249Z" stroke="#01A5D0" stroke-width="1.9614"/>
</g>
<defs>
<filter id="filter0_f_2_54" x="89.1012" y="112.101" width="142.83" height="156.798" filterUnits="userSpaceOnUse" color-interpolation-filters="sRGB">
<feFlood flood-opacity="0" result="BackgroundImageFix"/>
<feBlend mode="normal" in="SourceGraphic" in2="BackgroundImageFix" result="shape"/>
<feGaussianBlur stdDeviation="6.9544" result="effect1_foregroundBlur_2_54"/>
</filter>
<filter id="filter1_f_2_54" x="0.101199" y="239.101" width="152.621" height="167.798" filterUnits="userSpaceOnUse" color-interpolation-filters="sRGB">
<feFlood flood-opacity="0" result="BackgroundImageFix"/>
<feBlend mode="normal" in="SourceGraphic" in2="BackgroundImageFix" result="shape"/>
<feGaussianBlur stdDeviation="6.9544" result="effect1_foregroundBlur_2_54"/>
</filter>
<filter id="filter2_f_2_54" x="0.101428" y="500.101" width="137.797" height="151.147" filterUnits="userSpaceOnUse" color-interpolation-filters="sRGB">
<feFlood flood-opacity="0" result="BackgroundImageFix"/>
<feBlend mode="normal" in="SourceGraphic" in2="BackgroundImageFix" result="shape"/>
<feGaussianBlur stdDeviation="6.9544" result="effect1_foregroundBlur_2_54"/>
</filter>
<filter id="filter3_f_2_54" x="74.637" y="359.173" width="149.36" height="167.817" filterUnits="userSpaceOnUse" color-interpolation-filters="sRGB">
<feFlood flood-opacity="0" result="BackgroundImageFix"/>
<feBlend mode="normal" in="SourceGraphic" in2="BackgroundImageFix" result="shape"/>
<feGaussianBlur stdDeviation="6.9544" result="effect1_foregroundBlur_2_54"/>
</filter>
<filter id="filter4_f_2_54" x="29.1105" y="0.110507" width="129.46" height="141.779" filterUnits="userSpaceOnUse" color-interpolation-filters="sRGB">
<feFlood flood-opacity="0" result="BackgroundImageFix"/>
<feBlend mode="normal" in="SourceGraphic" in2="BackgroundImageFix" result="shape"/>
<feGaussianBlur stdDeviation="6.9544" result="effect1_foregroundBlur_2_54"/>
</filter>
</defs>
</svg>
