<svg width="382" height="382" viewBox="0 0 382 382" fill="none" xmlns="http://www.w3.org/2000/svg">
<mask id="path-1-inside-1_25_6" fill="white">
<path d="M242.766 331.879C210.795 343.617 175.781 344.125 143.483 333.321C111.184 322.516 83.5243 301.042 65.0513 272.43C46.5783 243.817 38.3922 209.77 41.8392 175.887C45.2862 142.005 60.161 110.304 84.0175 85.9976C107.874 61.6915 139.292 46.2275 173.104 42.1486C206.917 38.0698 241.111 45.6189 270.063 63.5546C299.015 81.4902 321.002 108.745 332.408 140.836C343.813 172.927 343.958 207.944 332.819 240.128L242.591 208.901C246.64 197.202 246.587 184.475 242.442 172.811C238.296 161.146 230.304 151.24 219.781 144.721C209.258 138.202 196.829 135.458 184.539 136.941C172.249 138.423 160.83 144.044 152.159 152.879C143.488 161.713 138.081 173.236 136.828 185.551C135.575 197.866 138.551 210.242 145.265 220.641C151.98 231.041 162.033 238.846 173.773 242.773C185.512 246.701 198.239 246.516 209.859 242.249L242.766 331.879Z"/>
</mask>
<path d="M242.766 331.879C210.795 343.617 175.781 344.125 143.483 333.321C111.184 322.516 83.5243 301.042 65.0513 272.43C46.5783 243.817 38.3922 209.77 41.8392 175.887C45.2862 142.005 60.161 110.304 84.0175 85.9976C107.874 61.6915 139.292 46.2275 173.104 42.1486C206.917 38.0698 241.111 45.6189 270.063 63.5546C299.015 81.4902 321.002 108.745 332.408 140.836C343.813 172.927 343.958 207.944 332.819 240.128L242.591 208.901C246.64 197.202 246.587 184.475 242.442 172.811C238.296 161.146 230.304 151.24 219.781 144.721C209.258 138.202 196.829 135.458 184.539 136.941C172.249 138.423 160.83 144.044 152.159 152.879C143.488 161.713 138.081 173.236 136.828 185.551C135.575 197.866 138.551 210.242 145.265 220.641C151.98 231.041 162.033 238.846 173.773 242.773C185.512 246.701 198.239 246.516 209.859 242.249L242.766 331.879Z" fill="#DA8A46" stroke="#DA8A46" stroke-width="2" mask="url(#path-1-inside-1_25_6)"/>
<mask id="path-2-inside-2_25_6" fill="white">
<path d="M332.593 240.045C325.312 261.03 313.462 280.136 297.898 295.983C282.335 311.831 263.445 324.024 242.595 331.682L190.879 190.879L332.593 240.045Z"/>
</mask>
<path d="M332.593 240.045C325.312 261.03 313.462 280.136 297.898 295.983C282.335 311.831 263.445 324.024 242.595 331.682L190.879 190.879L332.593 240.045Z" fill="#E1C639" stroke="#E1C639" stroke-width="2" mask="url(#path-2-inside-2_25_6)"/>
</svg>
