<svg width="228" height="660" viewBox="0 0 228 660" fill="none" xmlns="http://www.w3.org/2000/svg">
<path d="M66.6022 275.142C63.0622 274.957 59.0507 274.546 55.7431 273.764C53.7064 273.277 52.8506 272.9 52.1907 272.186C51.4518 271.384 51.1954 270.643 51.1865 269.299C51.1803 268.346 51.2318 268.03 51.48 267.489C51.8759 266.625 52.5392 265.946 53.3977 265.514C54.334 265.047 55.2592 265.068 57.5179 265.603C63.7977 267.098 71.8813 267.249 78.2051 266.035C85.1889 264.691 92.2826 261.193 98.1734 256.193C106.731 248.917 112.196 240.159 114.719 229.673C115.695 225.627 116.1 222.281 116.203 217.418C116.416 207.367 114.409 198.236 110.003 189.235C105.961 180.97 100.112 174.193 92.8325 169.342C86.0618 164.826 78.7756 162.204 71.0427 161.494C68.8362 161.292 63.8527 161.405 61.4675 161.71C52.6114 162.848 45.2262 166.153 38.8226 171.844C38.2047 172.393 36.8691 173.732 35.8546 174.82C31.6196 179.359 28.6804 184.18 26.4437 190.254C24.6785 195.047 23.6894 199.694 23.0302 206.294C22.8102 208.495 22.8109 217.281 23.0309 219.551C23.8523 228.007 25.5047 234.261 28.6165 240.687C32.5655 248.835 39.077 256.036 46.8271 260.809C48.8961 262.078 49.6976 263.257 49.6976 265.013C49.6976 267.262 48.1764 268.984 46.0669 269.128C44.9898 269.203 44.4241 268.991 42.4644 267.77C33.6089 262.263 25.935 253.574 21.3551 243.876C17.4755 235.667 15.4924 226.958 15.0718 216.287C14.5741 203.676 16.6733 191.946 21.111 182.543C23.6165 177.234 26.4066 173.12 30.4023 168.841C34.4915 164.463 38.3078 161.477 43.1785 158.845C52.7454 153.675 64.9113 151.803 76.2392 153.758C86.0756 155.453 96.2281 160.597 104.112 167.872C113.371 176.423 120.238 189.31 122.823 202.989C124.362 211.123 124.431 220.319 123.015 228.247C120.836 240.475 115.186 251.146 106.36 259.705C102.098 263.84 98.1459 266.755 93.3549 269.292C91.822 270.108 89.9111 271.048 89.1069 271.377C82.1232 274.278 74.4727 275.561 66.6022 275.142V275.142ZM71.2008 247.271C69.9704 247.059 68.8706 246.215 68.2794 245.035C67.867 244.219 67.8807 242.306 68.3 241.387C68.9393 239.995 70.0735 239.234 71.8332 239C73.0429 238.836 73.4485 238.644 73.9984 237.972C74.7957 237.005 75.3869 235.222 75.7581 232.712C76.033 230.846 76.0674 224.619 75.8199 221.451C75.0569 211.694 72.9948 201.608 70.5203 195.56C69.0493 191.956 67.3377 190.158 65.365 190.149C63.9627 190.142 63.1516 190.769 62.4092 192.43C61.4469 194.571 61.1582 196.773 61.1651 201.741C61.1926 213.598 63.076 223.618 67.1521 233.548C68.1007 235.866 68.1282 235.955 68.1213 237.018C68.1213 237.889 68.0663 238.225 67.8258 238.712C67.3308 239.727 66.8497 240.269 66.0729 240.694C65.4268 241.044 65.2069 241.092 64.2583 241.085C63.3509 241.078 63.0829 241.024 62.533 240.722C61.4263 240.105 61.0242 239.467 59.6982 236.202C55.4014 225.614 53.2087 213.303 53.3909 200.799C53.4596 196.137 53.5902 194.811 54.2432 192.157C55.3712 187.575 57.4113 184.593 60.5196 182.983C62.3542 182.033 63.1997 181.83 65.3375 181.833C66.7741 181.835 67.3102 181.894 68.1694 182.141C71.9156 183.223 74.8095 186.031 76.9885 190.696C80.1435 197.459 82.7212 209.236 83.5941 220.909C83.8554 224.413 83.8622 230.448 83.601 232.78C83.1405 236.861 82.1782 240.05 80.7003 242.381C80.116 243.314 78.7413 244.795 77.9027 245.406C76.0124 246.791 73.0979 247.6 71.2008 247.271V247.271Z" fill="#F299EE" stroke="#EED1F6" stroke-width="1.7832" stroke-linecap="round" stroke-linejoin="round"/>
<g filter="url(#filter0_f_1_28)">
<path d="M66.6022 275.142C63.0622 274.957 59.0507 274.546 55.7431 273.764C53.7064 273.277 52.8506 272.9 52.1907 272.186C51.4518 271.384 51.1954 270.643 51.1865 269.299C51.1803 268.346 51.2318 268.03 51.48 267.489C51.8759 266.625 52.5392 265.946 53.3977 265.514C54.334 265.047 55.2592 265.068 57.5179 265.603C63.7977 267.098 71.8813 267.249 78.2051 266.035C85.1889 264.691 92.2826 261.193 98.1734 256.193C106.731 248.917 112.196 240.159 114.719 229.673C115.695 225.627 116.1 222.281 116.203 217.418C116.416 207.367 114.409 198.236 110.003 189.235C105.961 180.97 100.112 174.193 92.8325 169.342C86.0618 164.826 78.7756 162.204 71.0427 161.494C68.8362 161.292 63.8527 161.405 61.4675 161.71C52.6114 162.848 45.2262 166.153 38.8226 171.844C38.2047 172.393 36.8691 173.732 35.8546 174.82C31.6196 179.359 28.6804 184.18 26.4437 190.254C24.6785 195.047 23.6894 199.694 23.0302 206.294C22.8102 208.495 22.8109 217.281 23.0309 219.551C23.8523 228.007 25.5047 234.261 28.6165 240.687C32.5655 248.835 39.077 256.036 46.8271 260.809C48.8961 262.078 49.6976 263.257 49.6976 265.013C49.6976 267.262 48.1764 268.984 46.0669 269.128C44.9898 269.203 44.4241 268.991 42.4644 267.77C33.6089 262.263 25.935 253.574 21.3551 243.876C17.4755 235.667 15.4924 226.958 15.0718 216.287C14.5741 203.676 16.6733 191.946 21.111 182.543C23.6165 177.234 26.4066 173.12 30.4023 168.841C34.4915 164.463 38.3078 161.477 43.1785 158.845C52.7454 153.675 64.9113 151.803 76.2392 153.758C86.0756 155.453 96.2281 160.597 104.112 167.872C113.371 176.423 120.238 189.31 122.823 202.989C124.362 211.123 124.431 220.319 123.015 228.247C120.836 240.475 115.186 251.146 106.36 259.705C102.098 263.84 98.1459 266.755 93.3549 269.292C91.822 270.108 89.9111 271.048 89.1069 271.377C82.1232 274.278 74.4727 275.561 66.6022 275.142V275.142ZM71.2008 247.271C69.9704 247.059 68.8706 246.215 68.2794 245.035C67.867 244.219 67.8807 242.306 68.3 241.387C68.9393 239.995 70.0735 239.234 71.8332 239C73.0429 238.836 73.4485 238.644 73.9984 237.972C74.7957 237.005 75.3869 235.222 75.7581 232.712C76.033 230.846 76.0674 224.619 75.8199 221.451C75.0569 211.694 72.9948 201.608 70.5203 195.56C69.0493 191.956 67.3377 190.158 65.365 190.149C63.9627 190.142 63.1516 190.769 62.4092 192.43C61.4469 194.571 61.1582 196.773 61.1651 201.741C61.1926 213.598 63.076 223.618 67.1521 233.548C68.1007 235.866 68.1282 235.955 68.1213 237.018C68.1213 237.889 68.0663 238.225 67.8258 238.712C67.3308 239.727 66.8497 240.269 66.0729 240.694C65.4268 241.044 65.2069 241.092 64.2583 241.085C63.3509 241.078 63.0829 241.024 62.533 240.722C61.4263 240.105 61.0242 239.467 59.6982 236.202C55.4014 225.614 53.2087 213.303 53.3909 200.799C53.4596 196.137 53.5902 194.811 54.2432 192.157C55.3712 187.575 57.4113 184.593 60.5196 182.983C62.3542 182.033 63.1997 181.83 65.3375 181.833C66.7741 181.835 67.3102 181.894 68.1694 182.141C71.9156 183.223 74.8095 186.031 76.9885 190.696C80.1435 197.459 82.7212 209.236 83.5941 220.909C83.8554 224.413 83.8622 230.448 83.601 232.78C83.1405 236.861 82.1782 240.05 80.7003 242.381C80.116 243.314 78.7413 244.795 77.9027 245.406C76.0124 246.791 73.0979 247.6 71.2008 247.271V247.271Z" fill="#F299EE"/>
<path d="M66.6022 275.142C63.0622 274.957 59.0507 274.546 55.7431 273.764C53.7064 273.277 52.8506 272.9 52.1907 272.186C51.4518 271.384 51.1954 270.643 51.1865 269.299C51.1803 268.346 51.2318 268.03 51.48 267.489C51.8759 266.625 52.5392 265.946 53.3977 265.514C54.334 265.047 55.2592 265.068 57.5179 265.603C63.7977 267.098 71.8813 267.249 78.2051 266.035C85.1889 264.691 92.2826 261.193 98.1734 256.193C106.731 248.917 112.196 240.159 114.719 229.673C115.695 225.627 116.1 222.281 116.203 217.418C116.416 207.367 114.409 198.236 110.003 189.235C105.961 180.97 100.112 174.193 92.8325 169.342C86.0618 164.826 78.7756 162.204 71.0427 161.494C68.8362 161.292 63.8527 161.405 61.4675 161.71C52.6114 162.848 45.2262 166.153 38.8226 171.844C38.2047 172.393 36.8691 173.732 35.8546 174.82C31.6196 179.359 28.6804 184.18 26.4437 190.254C24.6785 195.047 23.6894 199.694 23.0302 206.294C22.8102 208.495 22.8109 217.281 23.0309 219.551C23.8523 228.007 25.5047 234.261 28.6165 240.687C32.5655 248.835 39.077 256.036 46.8271 260.809C48.8961 262.078 49.6976 263.257 49.6976 265.013C49.6976 267.262 48.1764 268.984 46.0669 269.128C44.9898 269.203 44.4241 268.991 42.4644 267.77C33.6089 262.263 25.935 253.574 21.3551 243.876C17.4755 235.667 15.4924 226.958 15.0718 216.287C14.5741 203.676 16.6733 191.946 21.111 182.543C23.6165 177.234 26.4066 173.12 30.4023 168.841C34.4915 164.463 38.3078 161.477 43.1785 158.845C52.7454 153.675 64.9113 151.803 76.2392 153.758C86.0756 155.453 96.2281 160.597 104.112 167.872C113.371 176.423 120.238 189.31 122.823 202.989C124.362 211.123 124.431 220.319 123.015 228.247C120.836 240.475 115.186 251.146 106.36 259.705C102.098 263.84 98.1459 266.755 93.3549 269.292C91.822 270.108 89.9111 271.048 89.1069 271.377C82.1232 274.278 74.4727 275.561 66.6022 275.142V275.142ZM71.2008 247.271C69.9704 247.059 68.8706 246.215 68.2794 245.035C67.867 244.219 67.8807 242.306 68.3 241.387C68.9393 239.995 70.0735 239.234 71.8332 239C73.0429 238.836 73.4485 238.644 73.9984 237.972C74.7957 237.005 75.3869 235.222 75.7581 232.712C76.033 230.846 76.0674 224.619 75.8199 221.451C75.0569 211.694 72.9948 201.608 70.5203 195.56C69.0493 191.956 67.3377 190.158 65.365 190.149C63.9627 190.142 63.1516 190.769 62.4092 192.43C61.4469 194.571 61.1582 196.773 61.1651 201.741C61.1926 213.598 63.076 223.618 67.1521 233.548C68.1007 235.866 68.1282 235.955 68.1213 237.018C68.1213 237.889 68.0663 238.225 67.8258 238.712C67.3308 239.727 66.8497 240.269 66.0729 240.694C65.4268 241.044 65.2069 241.092 64.2583 241.085C63.3509 241.078 63.0829 241.024 62.533 240.722C61.4263 240.105 61.0242 239.467 59.6982 236.202C55.4014 225.614 53.2087 213.303 53.3909 200.799C53.4596 196.137 53.5902 194.811 54.2432 192.157C55.3712 187.575 57.4113 184.593 60.5196 182.983C62.3542 182.033 63.1997 181.83 65.3375 181.833C66.7741 181.835 67.3102 181.894 68.1694 182.141C71.9156 183.223 74.8095 186.031 76.9885 190.696C80.1435 197.459 82.7212 209.236 83.5941 220.909C83.8554 224.413 83.8622 230.448 83.601 232.78C83.1405 236.861 82.1782 240.05 80.7003 242.381C80.116 243.314 78.7413 244.795 77.9027 245.406C76.0124 246.791 73.0979 247.6 71.2008 247.271V247.271Z" stroke="#F299EE" stroke-width="1.9615" stroke-linecap="round" stroke-linejoin="round"/>
</g>
<path d="M149.295 140.945C148.836 140.924 145.265 140.846 141.355 140.761C133.789 140.605 131.908 140.464 129.441 139.849C127.447 139.347 126.499 138.824 124.696 137.233C122.886 135.642 122.038 134.539 121.592 133.216C121.281 132.311 121.274 132.036 121.295 124.689C121.309 118.573 121.359 116.961 121.529 116.416C122.412 113.637 126.202 112.846 128.302 115.002C129.257 115.992 129.285 116.211 129.271 124.01L129.264 131.003L130.056 131.746C130.926 132.573 131.18 132.672 133.04 132.969C134.341 133.174 135.748 133.223 147.323 133.485C157.66 133.718 154.754 133.301 155.348 131.965C155.447 131.732 155.539 130.126 155.581 127.8C155.631 124.724 155.603 123.798 155.405 122.851C155.093 121.316 155.101 120.44 155.454 119.174C156.14 116.699 157.724 115.193 160.962 113.941C161.705 113.652 162.73 113.241 163.232 113.022L164.151 112.633L164.321 111.184C165.063 104.947 165.466 97.5514 165.148 96.0666C165.092 95.812 164.78 95.3524 164.434 95.0201L163.819 94.4262L162.086 94.3484C160.128 94.2565 158.374 93.8817 157.222 93.309C156.197 92.7928 154.846 91.5413 154.351 90.6362C153.418 88.9251 153.488 91.2726 153.375 57.1279L153.276 25.9557L152.923 25.1149C152.004 22.9336 149.734 22.1021 145.824 22.5122C142.274 22.8848 137.494 24.2778 134.694 25.7527C129.936 28.2628 125.919 31.6519 118 39.8243C110.222 47.8574 81.8021 79.6341 75.8811 86.917C72.8809 90.615 70.5815 94.7373 69.7543 97.9191C69.2381 99.906 69.0542 101.744 69.0408 105.039C69.0309 107.535 69.0705 108.044 69.3456 108.985C69.9296 110.972 70.6925 112.054 71.8458 112.534C72.9856 113.008 81.4147 113.043 100.302 113.043C119.393 113.051 117.166 112.973 118.453 114.168C120.744 116.296 119.52 119.874 116.332 120.383C115.37 120.531 86.8789 120.567 78.785 120.425C72.7289 120.326 71.8769 120.284 70.7328 120.022C65.019 118.735 61.5281 114.076 61.0325 107.069C60.8988 105.181 61.1986 100.026 61.5522 98.11C62.5364 92.7787 65.4163 87.313 70.3411 81.4301C78.5121 71.6724 104.545 42.6222 112.139 34.7863C119.909 26.7695 123.593 23.5749 128.522 20.5762C131.824 18.5646 135.02 17.2558 139.29 16.1626C147.987 13.9346 154.457 14.9168 158.247 19.0404C159.187 20.0692 160.022 21.453 160.503 22.8035C161.344 25.163 161.309 23.8797 161.379 56.5339C161.408 73.1149 161.485 86.7332 161.542 86.7897C161.606 86.8392 162.687 86.9594 163.953 87.0443C166.096 87.1928 166.308 87.2352 167.17 87.6594C169.058 88.5998 171.13 90.5089 172.014 92.1282C172.247 92.5665 172.601 93.4009 172.799 93.9736C173.131 94.9706 173.152 95.2039 173.138 98.9444C173.124 103.463 172.806 107.903 172.106 113.192C171.653 116.635 169.836 118.537 165.311 120.298C163.621 120.963 163.225 121.168 163.253 121.38C163.267 121.521 163.352 122.016 163.437 122.476C163.642 123.593 163.635 130.042 163.43 131.767C163.048 134.963 162.56 135.995 160.616 137.685C158.975 139.113 156.996 139.962 154.075 140.485C151.94 140.874 152.824 141.114 149.295 140.945V140.945ZM106.489 96.208C103.965 96.1444 101.391 96.0595 100.769 96.01C96.7243 95.6918 94.101 94.7726 92.3857 93.0898C89.8487 90.5938 89.8225 87.1433 92.3093 83.1836C94.1364 80.2705 96.6324 77.0957 100.684 72.5351C104.417 68.3421 107.528 64.7784 109.48 62.4804C112.987 58.3369 115.342 56.6965 118.672 56.0672C120.638 55.6996 122.313 55.8339 123.692 56.4703C125.7 57.3895 127.397 59.1642 128.217 61.1865C129.059 63.2723 129.094 63.8522 129.045 73.0936C129.016 77.7604 129.009 83.4947 129.038 85.8422C129.123 92.8423 128.833 94.0797 126.853 95.1757C126.216 95.5292 125.983 95.5787 124.93 95.5787C123.119 95.5787 121.988 94.9211 121.316 93.4787C120.956 92.7009 120.977 94.2989 121.069 73.0229C121.111 63.64 121.048 63.1168 119.909 63.4208C118.806 63.7178 117.831 64.6229 114.96 67.9956C113.284 69.9754 110.42 73.2492 107.309 76.7351C104.304 80.1149 102.742 81.9816 101.32 83.8836C99.9415 85.7362 98.6617 87.7089 98.6617 87.9847C98.6617 88.4867 101.66 88.6918 111.234 88.8544C117.208 88.9534 117.032 89.017 118.113 89.9009C119.018 90.6433 119.443 91.4989 119.464 92.6302C119.485 94.0797 118.721 95.2322 117.251 95.9747C116.692 96.2575 117.017 96.2787 114.168 96.2999C112.471 96.307 109.013 96.2646 106.489 96.208V96.208Z" fill="#F299EE" stroke="#EED1F6" stroke-width="1.8"/>
<g filter="url(#filter1_f_1_28)">
<path d="M149.295 140.945C148.836 140.924 145.265 140.846 141.355 140.761C133.789 140.605 131.908 140.464 129.441 139.849C127.447 139.347 126.499 138.824 124.696 137.233C122.886 135.642 122.038 134.539 121.592 133.216C121.281 132.311 121.274 132.036 121.295 124.689C121.309 118.573 121.359 116.961 121.529 116.416C122.412 113.637 126.202 112.846 128.302 115.002C129.257 115.992 129.285 116.211 129.271 124.01L129.264 131.003L130.056 131.746C130.926 132.573 131.18 132.672 133.04 132.969C134.341 133.174 135.748 133.223 147.323 133.485C157.66 133.718 154.754 133.301 155.348 131.965C155.447 131.732 155.539 130.126 155.581 127.8C155.631 124.724 155.603 123.798 155.405 122.851C155.093 121.316 155.101 120.44 155.454 119.174C156.14 116.699 157.724 115.193 160.962 113.941C161.705 113.652 162.73 113.241 163.232 113.022L164.151 112.633L164.321 111.184C165.063 104.947 165.466 97.5514 165.148 96.0666C165.092 95.812 164.78 95.3524 164.434 95.0201L163.819 94.4262L162.086 94.3484C160.128 94.2565 158.374 93.8817 157.222 93.309C156.197 92.7928 154.846 91.5413 154.351 90.6362C153.418 88.9251 153.488 91.2726 153.375 57.1279L153.276 25.9557L152.923 25.1149C152.004 22.9336 149.734 22.1021 145.824 22.5122C142.274 22.8848 137.494 24.2778 134.694 25.7527C129.936 28.2628 125.919 31.6519 118 39.8243C110.222 47.8574 81.8021 79.6341 75.8811 86.917C72.8809 90.615 70.5815 94.7373 69.7543 97.9191C69.2381 99.906 69.0542 101.744 69.0408 105.039C69.0309 107.535 69.0705 108.044 69.3456 108.985C69.9296 110.972 70.6925 112.054 71.8458 112.534C72.9856 113.008 81.4147 113.043 100.302 113.043C119.393 113.051 117.166 112.973 118.453 114.168C120.744 116.296 119.52 119.874 116.332 120.383C115.37 120.531 86.8789 120.567 78.785 120.425C72.7289 120.326 71.8769 120.284 70.7328 120.022C65.019 118.735 61.5281 114.076 61.0325 107.069C60.8988 105.181 61.1986 100.026 61.5522 98.11C62.5364 92.7787 65.4163 87.313 70.3411 81.4301C78.5121 71.6724 104.545 42.6222 112.139 34.7863C119.909 26.7695 123.593 23.5749 128.522 20.5762C131.824 18.5646 135.02 17.2558 139.29 16.1626C147.987 13.9346 154.457 14.9168 158.247 19.0404C159.187 20.0692 160.022 21.453 160.503 22.8035C161.344 25.163 161.309 23.8797 161.379 56.5339C161.408 73.1149 161.485 86.7332 161.542 86.7897C161.606 86.8392 162.687 86.9594 163.953 87.0443C166.096 87.1928 166.308 87.2352 167.17 87.6594C169.058 88.5998 171.13 90.5089 172.014 92.1282C172.247 92.5665 172.601 93.4009 172.799 93.9736C173.131 94.9706 173.152 95.2039 173.138 98.9444C173.124 103.463 172.806 107.903 172.106 113.192C171.653 116.635 169.836 118.537 165.311 120.298C163.621 120.963 163.225 121.168 163.253 121.38C163.267 121.521 163.352 122.016 163.437 122.476C163.642 123.593 163.635 130.042 163.43 131.767C163.048 134.963 162.56 135.995 160.616 137.685C158.975 139.113 156.996 139.962 154.075 140.485C151.94 140.874 152.824 141.114 149.295 140.945V140.945ZM106.489 96.208C103.965 96.1444 101.391 96.0595 100.769 96.01C96.7243 95.6918 94.101 94.7726 92.3857 93.0898C89.8487 90.5938 89.8225 87.1433 92.3093 83.1836C94.1364 80.2705 96.6324 77.0957 100.684 72.5351C104.417 68.3421 107.528 64.7784 109.48 62.4804C112.987 58.3369 115.342 56.6965 118.672 56.0672C120.638 55.6996 122.313 55.8339 123.692 56.4703C125.7 57.3895 127.397 59.1642 128.217 61.1865C129.059 63.2723 129.094 63.8522 129.045 73.0936C129.016 77.7604 129.009 83.4947 129.038 85.8422C129.123 92.8423 128.833 94.0797 126.853 95.1757C126.216 95.5292 125.983 95.5787 124.93 95.5787C123.119 95.5787 121.988 94.9211 121.316 93.4787C120.956 92.7009 120.977 94.2989 121.069 73.0229C121.111 63.64 121.048 63.1168 119.909 63.4208C118.806 63.7178 117.831 64.6229 114.96 67.9956C113.284 69.9754 110.42 73.2492 107.309 76.7351C104.304 80.1149 102.742 81.9816 101.32 83.8836C99.9415 85.7362 98.6617 87.7089 98.6617 87.9847C98.6617 88.4867 101.66 88.6918 111.234 88.8544C117.208 88.9534 117.032 89.017 118.113 89.9009C119.018 90.6433 119.443 91.4989 119.464 92.6302C119.485 94.0797 118.721 95.2322 117.251 95.9747C116.692 96.2575 117.017 96.2787 114.168 96.2999C112.471 96.307 109.013 96.2646 106.489 96.208V96.208Z" fill="#F299EE"/>
<path d="M149.295 140.945C148.836 140.924 145.265 140.846 141.355 140.761C133.789 140.605 131.908 140.464 129.441 139.849C127.447 139.347 126.499 138.824 124.696 137.233C122.886 135.642 122.038 134.539 121.592 133.216C121.281 132.311 121.274 132.036 121.295 124.689C121.309 118.573 121.359 116.961 121.529 116.416C122.412 113.637 126.202 112.846 128.302 115.002C129.257 115.992 129.285 116.211 129.271 124.01L129.264 131.003L130.056 131.746C130.926 132.573 131.18 132.672 133.04 132.969C134.341 133.174 135.748 133.223 147.323 133.485C157.66 133.718 154.754 133.301 155.348 131.965C155.447 131.732 155.539 130.126 155.581 127.8C155.631 124.724 155.603 123.798 155.405 122.851C155.093 121.316 155.101 120.44 155.454 119.174C156.14 116.699 157.724 115.193 160.962 113.941C161.705 113.652 162.73 113.241 163.232 113.022L164.151 112.633L164.321 111.184C165.063 104.947 165.466 97.5514 165.148 96.0666C165.092 95.812 164.78 95.3524 164.434 95.0201L163.819 94.4262L162.086 94.3484C160.128 94.2565 158.374 93.8817 157.222 93.309C156.197 92.7928 154.846 91.5413 154.351 90.6362C153.418 88.9251 153.488 91.2726 153.375 57.1279L153.276 25.9557L152.923 25.1149C152.004 22.9336 149.734 22.1021 145.824 22.5122C142.274 22.8848 137.494 24.2778 134.694 25.7527C129.936 28.2628 125.919 31.6519 118 39.8243C110.222 47.8574 81.8021 79.6341 75.8811 86.917C72.8809 90.615 70.5815 94.7373 69.7543 97.9191C69.2381 99.906 69.0542 101.744 69.0408 105.039C69.0309 107.535 69.0705 108.044 69.3456 108.985C69.9296 110.972 70.6925 112.054 71.8458 112.534C72.9856 113.008 81.4147 113.043 100.302 113.043C119.393 113.051 117.166 112.973 118.453 114.168C120.744 116.296 119.52 119.874 116.332 120.383C115.37 120.531 86.8789 120.567 78.785 120.425C72.7289 120.326 71.8769 120.284 70.7328 120.022C65.019 118.735 61.5281 114.076 61.0325 107.069C60.8988 105.181 61.1986 100.026 61.5522 98.11C62.5364 92.7787 65.4163 87.313 70.3411 81.4301C78.5121 71.6724 104.545 42.6222 112.139 34.7863C119.909 26.7695 123.593 23.5749 128.522 20.5762C131.824 18.5646 135.02 17.2558 139.29 16.1626C147.987 13.9346 154.457 14.9168 158.247 19.0404C159.187 20.0692 160.022 21.453 160.503 22.8035C161.344 25.163 161.309 23.8797 161.379 56.5339C161.408 73.1149 161.485 86.7332 161.542 86.7897C161.606 86.8392 162.687 86.9594 163.953 87.0443C166.096 87.1928 166.308 87.2352 167.17 87.6594C169.058 88.5998 171.13 90.5089 172.014 92.1282C172.247 92.5665 172.601 93.4009 172.799 93.9736C173.131 94.9706 173.152 95.2039 173.138 98.9444C173.124 103.463 172.806 107.903 172.106 113.192C171.653 116.635 169.836 118.537 165.311 120.298C163.621 120.963 163.225 121.168 163.253 121.38C163.267 121.521 163.352 122.016 163.437 122.476C163.642 123.593 163.635 130.042 163.43 131.767C163.048 134.963 162.56 135.995 160.616 137.685C158.975 139.113 156.996 139.962 154.075 140.485C151.94 140.874 152.824 141.114 149.295 140.945V140.945ZM106.489 96.208C103.965 96.1444 101.391 96.0595 100.769 96.01C96.7243 95.6918 94.101 94.7726 92.3857 93.0898C89.8487 90.5938 89.8225 87.1433 92.3093 83.1836C94.1364 80.2705 96.6324 77.0957 100.684 72.5351C104.417 68.3421 107.528 64.7784 109.48 62.4804C112.987 58.3369 115.342 56.6965 118.672 56.0672C120.638 55.6996 122.313 55.8339 123.692 56.4703C125.7 57.3895 127.397 59.1642 128.217 61.1865C129.059 63.2723 129.094 63.8522 129.045 73.0936C129.016 77.7604 129.009 83.4947 129.038 85.8422C129.123 92.8423 128.833 94.0797 126.853 95.1757C126.216 95.5292 125.983 95.5787 124.93 95.5787C123.119 95.5787 121.988 94.9211 121.316 93.4787C120.956 92.7009 120.977 94.2989 121.069 73.0229C121.111 63.64 121.048 63.1168 119.909 63.4208C118.806 63.7178 117.831 64.6229 114.96 67.9956C113.284 69.9754 110.42 73.2492 107.309 76.7351C104.304 80.1149 102.742 81.9816 101.32 83.8836C99.9415 85.7362 98.6617 87.7089 98.6617 87.9847C98.6617 88.4867 101.66 88.6918 111.234 88.8544C117.208 88.9534 117.032 89.017 118.113 89.9009C119.018 90.6433 119.443 91.4989 119.464 92.6302C119.485 94.0797 118.721 95.2322 117.251 95.9747C116.692 96.2575 117.017 96.2787 114.168 96.2999C112.471 96.307 109.013 96.2646 106.489 96.208V96.208Z" stroke="#F299EE" stroke-width="1.98"/>
</g>
<g filter="url(#filter2_f_1_28)">
<path d="M152.842 400.968C143.98 400.645 137.578 400.028 130.301 398.803C120.76 397.201 113.138 395.118 108.819 392.93C104.825 390.899 102.244 387.877 101.275 384.072C100.887 382.553 100.914 379.703 101.329 378.266C102.615 373.83 106.036 370.581 110.517 369.544C112.297 369.13 114.592 369.205 119.135 369.844C123.606 370.476 124.602 370.476 125.698 369.875C127.622 368.807 128.914 365.784 129.529 360.904C130.014 357.054 130.301 343.345 130.298 324.185C130.297 313.618 130.262 311.27 130.096 310.423C129.737 308.589 129.191 307.986 127.519 307.575C125.932 307.185 123.762 307.134 120.995 307.42C117.488 307.783 114.982 307.764 113.423 307.361C108.632 306.122 105.641 302.474 105.275 297.419C105.002 293.637 106.519 290.045 109.802 286.701C113.058 283.384 116.781 281.183 124.58 277.966C141.257 271.084 158.61 267.484 177.28 267.034C187.584 266.786 193.149 267.892 196.821 270.922C199.907 273.464 201.411 277.877 200.691 282.298C200.077 286.107 197.753 288.574 193.325 290.955C191.475 291.949 190.627 292.212 189.724 292.067C188.926 291.939 188.403 291.65 187.746 290.975C186.927 290.138 186.644 289.42 186.644 288.198C186.644 286.33 187.379 285.301 189.512 284.196C190.246 283.814 190.719 283.807 191.242 283.444C192.026 282.896 193.311 281.794 193.431 281.322C193.777 279.981 193.452 278.317 192.683 277.486C191.715 276.441 189.632 275.674 186.567 275.238C182.259 274.623 171.898 274.901 163.871 275.847C150.132 277.466 137.414 280.907 124.442 286.513C119.703 288.562 116.762 290.411 114.652 292.673C113.052 294.386 112.585 295.284 112.597 296.621C112.606 297.72 112.841 298.325 113.486 298.911C114.496 299.829 116.24 299.975 120.73 299.516C126.93 298.883 131.492 299.889 134.092 302.463C135.698 304.054 136.552 305.718 137.209 308.541L137.539 309.955L137.529 327.607C137.519 344.466 137.361 354.82 137.048 359.031C136.678 364.024 135.836 367.814 134.426 370.837C132.898 374.116 130.387 376.575 127.55 377.582C125.253 378.402 123.77 378.439 119.189 377.808C113.191 376.973 112.23 376.981 110.63 377.823C109.041 378.657 108.109 380.184 108.295 381.65C108.507 383.327 109.668 384.598 112.117 385.846C117.401 388.531 130.825 391.418 142.985 392.486C148.158 392.937 151.634 393.065 158.839 393.073C165.686 393.073 167.84 392.997 173.797 392.554C183.791 391.817 195.804 389.929 199.992 388.441C202.485 387.561 204.667 386.004 205.302 384.658C205.917 383.357 205.761 381.207 204.992 380.259C204.074 379.131 202.951 378.808 198.615 378.409C193.036 377.898 190.119 377.229 187.584 375.875C184.759 374.371 182.979 372.251 181.574 368.724C180.91 367.062 180.585 365.821 180.147 363.212C179.611 360.039 179.533 358.527 179.088 342.653C178.686 328.524 178.671 327.291 178.82 320.681C179.201 303.134 179.688 294.873 180.43 293.308C181.348 291.385 183.587 290.54 185.296 291.475C186.185 291.962 186.92 292.912 187.195 293.935C187.4 294.693 187.4 294.901 187.195 296.547C186.772 299.929 186.411 308.084 186.129 320.831C185.981 327.291 185.995 328.539 186.397 342.578C186.63 350.775 186.892 358.181 186.969 359.046C187.16 361.099 187.711 364.009 188.128 365.212C189.413 368.92 191.256 369.799 199.229 370.521C202.937 370.86 204.956 371.266 206.552 372.003C210.394 373.77 212.689 377.311 212.972 381.921C213.205 385.628 211.99 388.937 209.441 391.569C206.397 394.719 202.322 396.441 194.618 397.84C187.04 399.224 179.187 400.156 170.618 400.69C167.252 400.901 155.866 401.074 152.842 400.968H152.842Z" fill="#01A5D0"/>
<path d="M152.842 400.968C143.98 400.645 137.578 400.028 130.301 398.803C120.76 397.201 113.138 395.118 108.819 392.93C104.825 390.899 102.244 387.877 101.275 384.072C100.887 382.553 100.914 379.703 101.329 378.266C102.615 373.83 106.036 370.581 110.517 369.544C112.297 369.13 114.592 369.205 119.135 369.844C123.606 370.476 124.602 370.476 125.698 369.875C127.622 368.807 128.914 365.784 129.529 360.904C130.014 357.054 130.301 343.345 130.298 324.185C130.297 313.618 130.262 311.27 130.096 310.423C129.737 308.589 129.191 307.986 127.519 307.575C125.932 307.185 123.762 307.134 120.995 307.42C117.488 307.783 114.982 307.764 113.423 307.361C108.632 306.122 105.641 302.474 105.275 297.419C105.002 293.637 106.519 290.045 109.802 286.701C113.058 283.384 116.781 281.183 124.58 277.966C141.257 271.084 158.61 267.484 177.28 267.034C187.584 266.786 193.149 267.892 196.821 270.922C199.907 273.464 201.411 277.877 200.691 282.298C200.077 286.107 197.753 288.574 193.325 290.955C191.475 291.949 190.627 292.212 189.724 292.067C188.926 291.939 188.403 291.65 187.746 290.975C186.927 290.138 186.644 289.42 186.644 288.198C186.644 286.33 187.379 285.301 189.512 284.196C190.246 283.814 190.719 283.807 191.242 283.444C192.026 282.896 193.311 281.794 193.431 281.322C193.777 279.981 193.452 278.317 192.683 277.486C191.715 276.441 189.632 275.674 186.567 275.238C182.259 274.623 171.898 274.901 163.871 275.847C150.132 277.466 137.414 280.907 124.442 286.513C119.703 288.562 116.762 290.411 114.652 292.673C113.052 294.386 112.585 295.284 112.597 296.621C112.606 297.72 112.841 298.325 113.486 298.911C114.496 299.829 116.24 299.975 120.73 299.516C126.93 298.883 131.492 299.889 134.092 302.463C135.698 304.054 136.552 305.718 137.209 308.541L137.539 309.955L137.529 327.607C137.519 344.466 137.361 354.82 137.048 359.031C136.678 364.024 135.836 367.814 134.426 370.837C132.898 374.116 130.387 376.575 127.55 377.582C125.253 378.402 123.77 378.439 119.189 377.808C113.191 376.973 112.23 376.981 110.63 377.823C109.041 378.657 108.109 380.184 108.295 381.65C108.507 383.327 109.668 384.598 112.117 385.846C117.401 388.531 130.825 391.418 142.985 392.486C148.158 392.937 151.634 393.065 158.839 393.073C165.686 393.073 167.84 392.997 173.797 392.554C183.791 391.817 195.804 389.929 199.992 388.441C202.485 387.561 204.667 386.004 205.302 384.658C205.917 383.357 205.761 381.207 204.992 380.259C204.074 379.131 202.951 378.808 198.615 378.409C193.036 377.898 190.119 377.229 187.584 375.875C184.759 374.371 182.979 372.251 181.574 368.724C180.91 367.062 180.585 365.821 180.147 363.212C179.611 360.039 179.533 358.527 179.088 342.653C178.686 328.524 178.671 327.291 178.82 320.681C179.201 303.134 179.688 294.873 180.43 293.308C181.348 291.385 183.587 290.54 185.296 291.475C186.185 291.962 186.92 292.912 187.195 293.935C187.4 294.693 187.4 294.901 187.195 296.547C186.772 299.929 186.411 308.084 186.129 320.831C185.981 327.291 185.995 328.539 186.397 342.578C186.63 350.775 186.892 358.181 186.969 359.046C187.16 361.099 187.711 364.009 188.128 365.212C189.413 368.92 191.256 369.799 199.229 370.521C202.937 370.86 204.956 371.266 206.552 372.003C210.394 373.77 212.689 377.311 212.972 381.921C213.205 385.628 211.99 388.937 209.441 391.569C206.397 394.719 202.322 396.441 194.618 397.84C187.04 399.224 179.187 400.156 170.618 400.69C167.252 400.901 155.866 401.074 152.842 400.968H152.842Z" stroke="#01A5D0" stroke-width="1.98"/>
</g>
<path d="M152.842 400.968C143.98 400.645 137.578 400.028 130.301 398.803C120.76 397.201 113.138 395.118 108.819 392.93C104.825 390.899 102.244 387.877 101.275 384.072C100.887 382.553 100.914 379.703 101.329 378.266C102.615 373.83 106.036 370.581 110.517 369.544C112.297 369.13 114.592 369.205 119.135 369.844C123.606 370.476 124.602 370.476 125.698 369.875C127.622 368.807 128.915 365.784 129.529 360.904C130.014 357.054 130.301 343.345 130.298 324.185C130.297 313.618 130.262 311.27 130.096 310.423C129.737 308.589 129.191 307.986 127.519 307.575C125.932 307.185 123.762 307.134 120.995 307.42C117.488 307.783 114.982 307.764 113.423 307.361C108.632 306.122 105.641 302.474 105.275 297.419C105.002 293.637 106.519 290.045 109.802 286.701C113.058 283.384 116.781 281.183 124.58 277.966C141.257 271.084 158.61 267.484 177.28 267.034C187.584 266.786 193.149 267.892 196.821 270.922C199.907 273.464 201.411 277.877 200.691 282.298C200.077 286.107 197.753 288.574 193.325 290.955C191.475 291.949 190.627 292.212 189.724 292.067C188.926 291.939 188.403 291.65 187.746 290.975C186.927 290.138 186.644 289.42 186.644 288.198C186.644 286.33 187.379 285.301 189.512 284.196C190.246 283.814 190.719 283.807 191.242 283.444C192.026 282.896 193.311 281.794 193.431 281.322C193.777 279.981 193.452 278.317 192.683 277.486C191.715 276.441 189.632 275.674 186.567 275.238C182.259 274.623 171.898 274.901 163.871 275.847C150.132 277.466 137.414 280.907 124.442 286.513C119.703 288.562 116.762 290.411 114.652 292.673C113.052 294.386 112.585 295.284 112.597 296.621C112.606 297.72 112.841 298.325 113.486 298.911C114.496 299.829 116.24 299.975 120.73 299.516C126.93 298.883 131.492 299.889 134.092 302.463C135.698 304.054 136.552 305.718 137.209 308.541L137.539 309.955L137.529 327.607C137.519 344.466 137.361 354.82 137.048 359.031C136.678 364.024 135.836 367.814 134.426 370.837C132.898 374.116 130.387 376.575 127.55 377.582C125.253 378.402 123.77 378.439 119.189 377.808C113.191 376.973 112.23 376.981 110.63 377.823C109.041 378.657 108.109 380.184 108.295 381.65C108.507 383.327 109.668 384.598 112.117 385.846C117.401 388.531 130.825 391.418 142.985 392.486C148.158 392.937 151.634 393.065 158.839 393.073C165.686 393.073 167.84 392.997 173.797 392.554C183.791 391.817 195.804 389.929 199.992 388.441C202.485 387.561 204.667 386.004 205.302 384.658C205.917 383.357 205.761 381.207 204.992 380.259C204.074 379.131 202.951 378.808 198.615 378.409C193.036 377.898 190.119 377.229 187.584 375.875C184.759 374.371 182.979 372.251 181.574 368.724C180.91 367.062 180.585 365.821 180.147 363.212C179.611 360.039 179.533 358.527 179.088 342.653C178.686 328.524 178.671 327.291 178.82 320.681C179.201 303.134 179.688 294.873 180.43 293.308C181.348 291.385 183.587 290.54 185.296 291.475C186.185 291.962 186.92 292.912 187.195 293.935C187.4 294.693 187.4 294.901 187.195 296.547C186.772 299.929 186.411 308.084 186.129 320.831C185.981 327.291 185.995 328.539 186.397 342.578C186.63 350.775 186.892 358.181 186.969 359.046C187.16 361.099 187.711 364.009 188.128 365.212C189.413 368.92 191.256 369.799 199.229 370.521C202.937 370.86 204.956 371.266 206.552 372.003C210.394 373.77 212.689 377.311 212.972 381.921C213.205 385.628 211.99 388.937 209.441 391.569C206.397 394.719 202.322 396.441 194.618 397.84C187.04 399.224 179.187 400.156 170.618 400.69C167.252 400.901 155.866 401.074 152.842 400.968H152.842Z" fill="#01A5D0" stroke="#1BB5DB" stroke-width="1.8"/>
<path d="M72.0678 520.919C67.3325 520.619 62.9039 519.748 58.7845 518.3C53.5898 516.472 50.9332 514.528 50.2168 512.037C49.9181 511.001 50.0058 510.302 50.7713 507.658L51.2577 505.781L65.4372 481.24C73.1596 467.899 79.7903 456.428 80.1706 455.76C81.3544 453.65 82.3419 451.35 82.3481 450.7C82.3542 449.921 79.2321 449.442 72.6444 449.221C66.9338 449.031 59.1697 449.289 55.5029 449.786C51.8999 450.276 51.6405 450.399 49.6126 452.656C46.5433 456.079 44.1634 457.33 40.1457 457.637C32.3914 458.238 26.6545 453.95 24.7303 446.115C24.1617 443.803 24.0102 442.318 24.0004 438.97C23.9942 437.06 24.0636 435.111 24.1684 434.227C24.6935 429.808 25.7822 426.139 27.5702 422.761C30.3415 417.526 35.2712 413.758 40.2543 413.066C42.2889 412.784 44.9522 413.39 49.62 415.195C51.6257 415.972 52.6623 416.245 54.9619 416.604C55.5023 416.688 65.2409 416.756 84.1084 416.807C115.366 416.891 113.097 416.832 115.581 417.636C120.322 419.173 122.31 423.314 120.764 428.463C120.341 429.878 88.629 518.434 88.3837 518.857C87.7765 519.894 86.2491 520.636 84.9549 520.525C82.986 520.347 81.4893 518.759 81.7163 517.072C81.7592 516.741 88.5677 496.389 97.5046 471.835C106.442 447.288 113.839 426.85 113.937 426.421C114.164 425.48 114.176 424.952 113.986 424.339C113.802 423.743 113.146 423.472 111.484 423.304C110.705 423.224 100.878 423.18 83.5687 423.18C60.2725 423.178 56.6223 423.155 55.0294 422.991C51.6944 422.65 49.8635 422.183 45.2405 420.494C44.0597 420.062 42.66 419.62 42.13 419.51C41.1909 419.317 41.1474 419.318 40.3978 419.57C38.2038 420.307 35.8036 422.449 34.3585 424.96C32.8189 427.635 31.8265 430.775 31.3339 434.526C31.0745 436.503 31.1131 441.528 31.4008 443.172C32.2994 448.306 34.4021 450.931 37.8824 451.269C39.0196 451.373 40.5493 451.25 41.2357 450.993C41.9662 450.723 42.9041 449.925 44.2818 448.404C46.9205 445.488 48.4368 444.596 51.9189 443.906C59.1206 442.481 76.613 442.401 82.6731 443.766C84.7586 444.235 86.1449 444.891 87.3594 445.981C89.9969 448.349 90.2054 451.122 88.0893 455.661C87.1937 457.587 85.9241 459.807 72.1844 483.52C58.5839 506.982 58.1815 507.693 57.7718 509.067C57.4976 509.589 57.4535 510.196 57.7785 510.76C58.8366 511.545 61.0515 512.343 63.7749 513.116C67.1056 514.06 70.3074 514.508 74.6379 514.631C77.6618 514.717 78.2139 514.839 79.1094 515.637C80.8514 517.176 80.422 519.648 78.2384 520.654C77.6005 520.949 77.4103 520.973 75.6561 520.998C74.6133 521.01 73.0002 520.973 72.0678 520.918V520.919Z" fill="#01A5D0" stroke="#1BB5DB" stroke-width="1.8"/>
<g filter="url(#filter3_f_1_28)">
<path d="M72.0678 520.919C67.3325 520.619 62.9039 519.748 58.7845 518.3C53.5898 516.472 50.9332 514.528 50.2168 512.037C49.9181 511.001 50.0058 510.302 50.7713 507.658L51.2577 505.781L65.4372 481.24C73.1596 467.899 79.7903 456.428 80.1706 455.76C81.3544 453.65 82.3419 451.35 82.3481 450.7C82.3542 449.921 79.2321 449.442 72.6444 449.221C66.9338 449.031 59.1697 449.289 55.5029 449.786C51.8999 450.276 51.6405 450.399 49.6126 452.656C46.5433 456.079 44.1634 457.33 40.1457 457.637C32.3914 458.238 26.6545 453.95 24.7303 446.115C24.1617 443.803 24.0102 442.318 24.0004 438.97C23.9942 437.06 24.0636 435.111 24.1684 434.227C24.6935 429.808 25.7822 426.139 27.5702 422.761C30.3415 417.526 35.2712 413.758 40.2543 413.066C42.2889 412.784 44.9522 413.39 49.62 415.195C51.6257 415.972 52.6623 416.245 54.9619 416.604C55.5023 416.688 65.2409 416.756 84.1084 416.807C115.366 416.891 113.097 416.832 115.581 417.636C120.322 419.173 122.31 423.314 120.764 428.463C120.341 429.878 88.629 518.434 88.3837 518.857C87.7765 519.894 86.2491 520.636 84.9549 520.525C82.986 520.347 81.4893 518.759 81.7163 517.072C81.7592 516.741 88.5677 496.389 97.5046 471.835C106.442 447.288 113.839 426.85 113.937 426.421C114.164 425.48 114.176 424.952 113.986 424.339C113.802 423.743 113.146 423.472 111.484 423.304C110.705 423.224 100.878 423.18 83.5687 423.18C60.2725 423.178 56.6223 423.155 55.0294 422.991C51.6944 422.65 49.8635 422.183 45.2405 420.494C44.0597 420.062 42.66 419.62 42.13 419.51C41.1909 419.317 41.1474 419.318 40.3978 419.57C38.2038 420.307 35.8036 422.449 34.3585 424.96C32.8189 427.635 31.8265 430.775 31.3339 434.526C31.0745 436.503 31.1131 441.528 31.4008 443.172C32.2994 448.306 34.4021 450.931 37.8824 451.269C39.0196 451.373 40.5493 451.25 41.2357 450.993C41.9662 450.723 42.9041 449.925 44.2818 448.404C46.9205 445.488 48.4368 444.596 51.9189 443.906C59.1206 442.481 76.613 442.401 82.6731 443.766C84.7586 444.235 86.1449 444.891 87.3594 445.981C89.9969 448.349 90.2054 451.122 88.0893 455.661C87.1937 457.587 85.9241 459.807 72.1844 483.52C58.5839 506.982 58.1815 507.693 57.7718 509.067C57.4976 509.589 57.4535 510.196 57.7785 510.76C58.8366 511.545 61.0515 512.343 63.7749 513.116C67.1056 514.06 70.3074 514.508 74.6379 514.631C77.6618 514.717 78.2139 514.839 79.1094 515.637C80.8514 517.176 80.422 519.648 78.2384 520.654C77.6005 520.949 77.4103 520.973 75.6561 520.998C74.6133 521.01 73.0002 520.973 72.0678 520.918V520.919Z" fill="#01A5D0"/>
<path d="M72.0678 520.919C67.3325 520.619 62.9039 519.748 58.7845 518.3C53.5898 516.472 50.9332 514.528 50.2168 512.037C49.9181 511.001 50.0058 510.302 50.7713 507.658L51.2577 505.781L65.4372 481.24C73.1596 467.899 79.7903 456.428 80.1706 455.76C81.3544 453.65 82.3419 451.35 82.3481 450.7C82.3542 449.921 79.2321 449.442 72.6444 449.221C66.9338 449.031 59.1697 449.289 55.5029 449.786C51.8999 450.276 51.6405 450.399 49.6126 452.656C46.5433 456.079 44.1634 457.33 40.1457 457.637C32.3914 458.238 26.6545 453.95 24.7303 446.115C24.1617 443.803 24.0102 442.318 24.0004 438.97C23.9942 437.06 24.0636 435.111 24.1684 434.227C24.6935 429.808 25.7822 426.139 27.5702 422.761C30.3415 417.526 35.2712 413.758 40.2543 413.066C42.2889 412.784 44.9522 413.39 49.62 415.195C51.6257 415.972 52.6623 416.245 54.9619 416.604C55.5023 416.688 65.2409 416.756 84.1084 416.807C115.366 416.891 113.097 416.832 115.581 417.636C120.322 419.173 122.31 423.314 120.764 428.463C120.341 429.878 88.629 518.434 88.3837 518.857C87.7765 519.894 86.2491 520.636 84.9549 520.525C82.986 520.347 81.4893 518.759 81.7163 517.072C81.7592 516.741 88.5677 496.389 97.5046 471.835C106.442 447.288 113.839 426.85 113.937 426.421C114.164 425.48 114.176 424.952 113.986 424.339C113.802 423.743 113.146 423.472 111.484 423.304C110.705 423.224 100.878 423.18 83.5687 423.18C60.2725 423.178 56.6223 423.155 55.0294 422.991C51.6944 422.65 49.8635 422.183 45.2405 420.494C44.0597 420.062 42.66 419.62 42.13 419.51C41.1909 419.317 41.1474 419.318 40.3978 419.57C38.2038 420.307 35.8036 422.449 34.3585 424.96C32.8189 427.635 31.8265 430.775 31.3339 434.526C31.0745 436.503 31.1131 441.528 31.4008 443.172C32.2994 448.306 34.4021 450.931 37.8824 451.269C39.0196 451.373 40.5493 451.25 41.2357 450.993C41.9662 450.723 42.9041 449.925 44.2818 448.404C46.9205 445.488 48.4368 444.596 51.9189 443.906C59.1206 442.481 76.613 442.401 82.6731 443.766C84.7586 444.235 86.1449 444.891 87.3594 445.981C89.9969 448.349 90.2054 451.122 88.0893 455.661C87.1937 457.587 85.9241 459.807 72.1844 483.52C58.5839 506.982 58.1815 507.693 57.7718 509.067C57.4976 509.589 57.4535 510.196 57.7785 510.76C58.8366 511.545 61.0515 512.343 63.7749 513.116C67.1056 514.06 70.3074 514.508 74.6379 514.631C77.6618 514.717 78.2139 514.839 79.1094 515.637C80.8514 517.176 80.422 519.648 78.2384 520.654C77.6005 520.949 77.4103 520.973 75.6561 520.998C74.6133 521.01 73.0002 520.973 72.0678 520.918V520.919Z" stroke="#01A5D0" stroke-width="1.98"/>
</g>
<path d="M135.545 644.533C124.371 644.13 114.183 641.939 105.09 637.964C102.647 636.896 101.389 636.258 99.4389 635.1C90.5492 629.808 84.1717 622.026 82.0708 613.904C80.0559 606.108 80.9 598.555 84.4727 592.41C86.3599 589.164 88.7036 586.625 92.8498 583.344L93.5982 582.755V581.86V580.972L92.168 579.432C88.664 575.652 86.4889 572.032 85.1004 567.669C83.9615 564.09 83.5585 561.018 83.682 556.856C83.9948 546.284 88.9748 537.607 98.5095 531.025C106.532 525.487 116 522.278 127.382 521.24C130.489 520.956 138.417 520.915 141.718 521.165C149.722 521.771 156.526 523.044 163.49 525.241C172.09 527.951 177.084 530.797 181.724 535.633C185.685 539.754 187.842 543.729 188.806 548.702C189.208 550.776 189.243 555.199 188.868 557.127C188.292 560.095 186.905 563.431 185.234 565.859C184.159 567.42 181.454 570.34 179.886 571.637C179.269 572.143 177.805 573.239 176.633 574.071C175.295 575.021 174.407 575.743 174.22 576.041C173.692 576.901 173.221 577.414 172.624 577.775C172.125 578.08 171.861 578.135 171.078 578.135C169.635 578.135 168.685 577.581 167.984 576.353C167.513 575.521 167.415 574.161 167.748 573.135C168.31 571.38 169.205 570.444 172.451 568.203C174.878 566.525 176.065 565.533 177.632 563.848C180.732 560.525 182.147 557.175 182.147 553.138C182.147 548.116 180.254 544.136 175.836 539.874C173.706 537.819 170.883 535.917 168.199 534.721C156.949 529.713 141.454 527.354 127.652 528.552C119.988 529.215 113.198 531.1 107.136 534.242C99.079 538.422 93.8 544.032 91.7456 550.603C90.9466 553.157 90.751 554.6 90.7469 557.959C90.7434 561.205 90.8391 562.044 91.4814 564.416C92.503 568.189 94.1774 571.04 97.4532 574.605C99.0491 576.339 99.7455 577.352 100.228 578.642C100.541 579.474 100.564 579.696 100.561 581.874C100.558 583.996 100.529 584.288 100.246 585.037C99.5506 586.882 98.5213 588.095 96.0577 589.996C92.0834 593.055 89.3215 597.237 88.4331 601.53C87.6403 605.366 88.0772 610.269 89.5546 614.133C91.0964 618.169 94.5817 622.622 98.7987 625.945C104.625 630.543 113.621 634.184 123.504 635.96C131.377 637.368 140.137 637.694 147.627 636.848C157.358 635.752 165.314 632.617 171.494 627.443C176.612 623.156 181.114 616.449 182.855 610.533C184.103 606.302 184.297 601.905 183.417 597.882C182.952 595.773 182.501 594.49 181.412 592.181C179.623 588.401 178.728 587.09 175.863 584.863C174.872 584.093 174.268 583.518 174.005 583.081C173.637 582.484 173.609 582.332 173.609 581.194C173.609 580.064 173.637 579.897 173.984 579.335C175.01 577.671 176.89 577.144 178.603 578.038C180.538 579.058 183.403 581.728 184.936 583.975C189.791 591.133 191.809 599.338 190.706 607.453C189.617 615.492 185.338 623.774 178.874 630.349C168.886 640.517 154.529 645.212 135.545 644.533V644.533ZM132.694 626.257C129.733 625.903 128.262 625.577 126.168 624.814C121.847 623.233 117.387 619.723 114.682 615.756C113.621 614.202 112.234 611.483 111.582 609.694C110.5 606.691 109.896 602.265 110.361 600.705C111.027 598.471 113.295 597.424 115.258 598.444C116.631 599.158 117.061 599.997 117.241 602.335C117.415 604.533 117.671 605.775 118.302 607.447C119.766 611.331 122.429 614.563 125.925 616.692C128.665 618.357 132.146 619.189 135.67 619.016C138.389 618.884 140.324 618.204 141.669 616.9C142.849 615.756 143.209 614.341 142.793 612.42C142.377 610.464 141.392 609.347 138.472 607.488C135.864 605.83 131.571 603.562 126.695 601.274C121.111 598.645 118.497 597.618 116.659 597.32C115.466 597.133 114.911 596.848 114.21 596.058C112.948 594.636 112.997 592.52 114.328 591.147C116.388 589.011 119.669 589.85 131.501 595.545C140.095 599.685 144.971 602.744 147.066 605.31C148.127 606.6 149.237 608.889 149.639 610.602C150.069 612.399 150.069 615.229 149.646 616.852C148.529 621.117 145.013 624.412 140.255 625.66C139.45 625.875 138.208 626.111 137.508 626.194C136.322 626.333 133.631 626.361 132.694 626.257V626.257ZM148.078 566.698C147.482 566.539 146.552 565.859 146.206 565.318C145.359 564.021 145.373 562.71 146.254 561.004C147.364 558.868 149.063 555.203 149.368 554.314C149.944 552.637 149.701 550.538 148.786 549.141C147.863 547.747 145.214 546.106 142.842 545.456C139.457 544.532 136.246 544.714 134.56 545.925C133.797 546.473 133.305 547.047 133.166 547.547C133.013 548.113 133.443 548.824 134.914 550.418C136.925 552.598 138.292 553.842 141.087 556.045C143.133 557.661 143.57 558.063 144.028 558.784C144.333 559.263 144.374 559.471 144.374 560.498C144.374 562.259 143.806 563.209 142.335 563.91C141.725 564.201 141.496 564.236 140.761 564.167C139.693 564.063 139.29 563.827 136.759 561.808C132.042 558.042 128.45 554.359 127.111 551.895C126.306 550.418 126.085 549.594 126.078 548.06C126.071 545.496 126.924 543.455 128.838 541.446C131.696 538.457 135.559 537.209 140.525 537.671C147.801 538.347 153.911 542.247 155.833 547.441C156.526 549.316 156.873 551.535 156.741 553.301C156.561 555.739 155.174 559.416 152.781 563.792C151.893 565.415 151.394 566.025 150.617 566.442C150.041 566.747 148.751 566.879 148.078 566.698V566.698Z" fill="#F299EE" stroke="#EED1F6" stroke-width="1.8"/>
<g filter="url(#filter4_f_1_28)">
<path d="M135.545 644.533C124.371 644.13 114.183 641.939 105.09 637.964C102.647 636.896 101.389 636.258 99.4389 635.1C90.5492 629.808 84.1717 622.026 82.0708 613.904C80.0559 606.108 80.9 598.555 84.4727 592.41C86.3599 589.164 88.7036 586.625 92.8498 583.344L93.5982 582.755V581.86V580.972L92.168 579.432C88.664 575.652 86.4889 572.032 85.1004 567.669C83.9615 564.09 83.5585 561.018 83.682 556.856C83.9948 546.284 88.9748 537.607 98.5095 531.025C106.532 525.487 116 522.278 127.382 521.24C130.489 520.956 138.417 520.915 141.718 521.165C149.722 521.771 156.526 523.044 163.49 525.241C172.09 527.951 177.084 530.797 181.724 535.633C185.685 539.754 187.842 543.729 188.806 548.702C189.208 550.776 189.243 555.199 188.868 557.127C188.292 560.095 186.905 563.431 185.234 565.859C184.159 567.42 181.454 570.34 179.886 571.637C179.269 572.143 177.805 573.239 176.633 574.071C175.295 575.021 174.407 575.743 174.22 576.041C173.692 576.901 173.221 577.414 172.624 577.775C172.125 578.08 171.861 578.135 171.078 578.135C169.635 578.135 168.685 577.581 167.984 576.353C167.513 575.521 167.415 574.161 167.748 573.135C168.31 571.38 169.205 570.444 172.451 568.203C174.878 566.525 176.065 565.533 177.632 563.848C180.732 560.525 182.147 557.175 182.147 553.138C182.147 548.116 180.254 544.136 175.836 539.874C173.706 537.819 170.883 535.917 168.199 534.721C156.949 529.713 141.454 527.354 127.652 528.552C119.988 529.215 113.198 531.1 107.136 534.242C99.079 538.422 93.8 544.032 91.7456 550.603C90.9466 553.157 90.751 554.6 90.7469 557.959C90.7434 561.205 90.8391 562.044 91.4814 564.416C92.503 568.189 94.1774 571.04 97.4532 574.605C99.0491 576.339 99.7455 577.352 100.228 578.642C100.541 579.474 100.564 579.696 100.561 581.874C100.558 583.996 100.529 584.288 100.246 585.037C99.5506 586.882 98.5213 588.095 96.0577 589.996C92.0834 593.055 89.3215 597.237 88.4331 601.53C87.6403 605.366 88.0772 610.269 89.5546 614.133C91.0964 618.169 94.5817 622.622 98.7987 625.945C104.625 630.543 113.621 634.184 123.504 635.96C131.377 637.368 140.137 637.694 147.627 636.848C157.358 635.752 165.314 632.617 171.494 627.443C176.612 623.156 181.114 616.449 182.855 610.533C184.103 606.302 184.297 601.905 183.417 597.882C182.952 595.773 182.501 594.49 181.412 592.181C179.623 588.401 178.728 587.09 175.863 584.863C174.872 584.093 174.268 583.518 174.005 583.081C173.637 582.484 173.609 582.332 173.609 581.194C173.609 580.064 173.637 579.897 173.984 579.335C175.01 577.671 176.89 577.144 178.603 578.038C180.538 579.058 183.403 581.728 184.936 583.975C189.791 591.133 191.809 599.338 190.706 607.453C189.617 615.492 185.338 623.774 178.874 630.349C168.886 640.517 154.529 645.212 135.545 644.533V644.533ZM132.694 626.257C129.733 625.903 128.262 625.577 126.168 624.814C121.847 623.233 117.387 619.723 114.682 615.756C113.621 614.202 112.234 611.483 111.582 609.694C110.5 606.691 109.896 602.265 110.361 600.705C111.027 598.471 113.295 597.424 115.258 598.444C116.631 599.158 117.061 599.997 117.241 602.335C117.415 604.533 117.671 605.775 118.302 607.447C119.766 611.331 122.429 614.563 125.925 616.692C128.665 618.357 132.146 619.189 135.67 619.016C138.389 618.884 140.324 618.204 141.669 616.9C142.849 615.756 143.209 614.341 142.793 612.42C142.377 610.464 141.392 609.347 138.472 607.488C135.864 605.83 131.571 603.562 126.695 601.274C121.111 598.645 118.497 597.618 116.659 597.32C115.466 597.133 114.911 596.848 114.21 596.058C112.948 594.636 112.997 592.52 114.328 591.147C116.388 589.011 119.669 589.85 131.501 595.545C140.095 599.685 144.971 602.744 147.066 605.31C148.127 606.6 149.237 608.889 149.639 610.602C150.069 612.399 150.069 615.229 149.646 616.852C148.529 621.117 145.013 624.412 140.255 625.66C139.45 625.875 138.208 626.111 137.508 626.194C136.322 626.333 133.631 626.361 132.694 626.257V626.257ZM148.078 566.698C147.482 566.539 146.552 565.859 146.206 565.318C145.359 564.021 145.373 562.71 146.254 561.004C147.364 558.868 149.063 555.203 149.368 554.314C149.944 552.637 149.701 550.538 148.786 549.141C147.863 547.747 145.214 546.106 142.842 545.456C139.457 544.532 136.246 544.714 134.56 545.925C133.797 546.473 133.305 547.047 133.166 547.547C133.013 548.113 133.443 548.824 134.914 550.418C136.925 552.598 138.292 553.842 141.087 556.045C143.133 557.661 143.57 558.063 144.028 558.784C144.333 559.263 144.374 559.471 144.374 560.498C144.374 562.259 143.806 563.209 142.335 563.91C141.725 564.201 141.496 564.236 140.761 564.167C139.693 564.063 139.29 563.827 136.759 561.808C132.042 558.042 128.45 554.359 127.111 551.895C126.306 550.418 126.085 549.594 126.078 548.06C126.071 545.496 126.924 543.455 128.838 541.446C131.696 538.457 135.559 537.209 140.525 537.671C147.801 538.347 153.911 542.247 155.833 547.441C156.526 549.316 156.873 551.535 156.741 553.301C156.561 555.739 155.174 559.416 152.781 563.792C151.893 565.415 151.394 566.025 150.617 566.442C150.041 566.747 148.751 566.879 148.078 566.698V566.698Z" fill="#F299EE"/>
<path d="M135.545 644.533C124.371 644.13 114.183 641.939 105.09 637.964C102.647 636.896 101.389 636.258 99.4389 635.1C90.5492 629.808 84.1717 622.026 82.0708 613.904C80.0559 606.108 80.9 598.555 84.4727 592.41C86.3599 589.164 88.7036 586.625 92.8498 583.344L93.5982 582.755V581.86V580.972L92.168 579.432C88.664 575.652 86.4889 572.032 85.1004 567.669C83.9615 564.09 83.5585 561.018 83.682 556.856C83.9948 546.284 88.9748 537.607 98.5095 531.025C106.532 525.487 116 522.278 127.382 521.24C130.489 520.956 138.417 520.915 141.718 521.165C149.722 521.771 156.526 523.044 163.49 525.241C172.09 527.951 177.084 530.797 181.724 535.633C185.685 539.754 187.842 543.729 188.806 548.702C189.208 550.776 189.243 555.199 188.868 557.127C188.292 560.095 186.905 563.431 185.234 565.859C184.159 567.42 181.454 570.34 179.886 571.637C179.269 572.143 177.805 573.239 176.633 574.071C175.295 575.021 174.407 575.743 174.22 576.041C173.692 576.901 173.221 577.414 172.624 577.775C172.125 578.08 171.861 578.135 171.078 578.135C169.635 578.135 168.685 577.581 167.984 576.353C167.513 575.521 167.415 574.161 167.748 573.135C168.31 571.38 169.205 570.444 172.451 568.203C174.878 566.525 176.065 565.533 177.632 563.848C180.732 560.525 182.147 557.175 182.147 553.138C182.147 548.116 180.254 544.136 175.836 539.874C173.706 537.819 170.883 535.917 168.199 534.721C156.949 529.713 141.454 527.354 127.652 528.552C119.988 529.215 113.198 531.1 107.136 534.242C99.079 538.422 93.8 544.032 91.7456 550.603C90.9466 553.157 90.751 554.6 90.7469 557.959C90.7434 561.205 90.8391 562.044 91.4814 564.416C92.503 568.189 94.1774 571.04 97.4532 574.605C99.0491 576.339 99.7455 577.352 100.228 578.642C100.541 579.474 100.564 579.696 100.561 581.874C100.558 583.996 100.529 584.288 100.246 585.037C99.5506 586.882 98.5213 588.095 96.0577 589.996C92.0834 593.055 89.3215 597.237 88.4331 601.53C87.6403 605.366 88.0772 610.269 89.5546 614.133C91.0964 618.169 94.5817 622.622 98.7987 625.945C104.625 630.543 113.621 634.184 123.504 635.96C131.377 637.368 140.137 637.694 147.627 636.848C157.358 635.752 165.314 632.617 171.494 627.443C176.612 623.156 181.114 616.449 182.855 610.533C184.103 606.302 184.297 601.905 183.417 597.882C182.952 595.773 182.501 594.49 181.412 592.181C179.623 588.401 178.728 587.09 175.863 584.863C174.872 584.093 174.268 583.518 174.005 583.081C173.637 582.484 173.609 582.332 173.609 581.194C173.609 580.064 173.637 579.897 173.984 579.335C175.01 577.671 176.89 577.144 178.603 578.038C180.538 579.058 183.403 581.728 184.936 583.975C189.791 591.133 191.809 599.338 190.706 607.453C189.617 615.492 185.338 623.774 178.874 630.349C168.886 640.517 154.529 645.212 135.545 644.533V644.533ZM132.694 626.257C129.733 625.903 128.262 625.577 126.168 624.814C121.847 623.233 117.387 619.723 114.682 615.756C113.621 614.202 112.234 611.483 111.582 609.694C110.5 606.691 109.896 602.265 110.361 600.705C111.027 598.471 113.295 597.424 115.258 598.444C116.631 599.158 117.061 599.997 117.241 602.335C117.415 604.533 117.671 605.775 118.302 607.447C119.766 611.331 122.429 614.563 125.925 616.692C128.665 618.357 132.146 619.189 135.67 619.016C138.389 618.884 140.324 618.204 141.669 616.9C142.849 615.756 143.209 614.341 142.793 612.42C142.377 610.464 141.392 609.347 138.472 607.488C135.864 605.83 131.571 603.562 126.695 601.274C121.111 598.645 118.497 597.618 116.659 597.32C115.466 597.133 114.911 596.848 114.21 596.058C112.948 594.636 112.997 592.52 114.328 591.147C116.388 589.011 119.669 589.85 131.501 595.545C140.095 599.685 144.971 602.744 147.066 605.31C148.127 606.6 149.237 608.889 149.639 610.602C150.069 612.399 150.069 615.229 149.646 616.852C148.529 621.117 145.013 624.412 140.255 625.66C139.45 625.875 138.208 626.111 137.508 626.194C136.322 626.333 133.631 626.361 132.694 626.257V626.257ZM148.078 566.698C147.482 566.539 146.552 565.859 146.206 565.318C145.359 564.021 145.373 562.71 146.254 561.004C147.364 558.868 149.063 555.203 149.368 554.314C149.944 552.637 149.701 550.538 148.786 549.141C147.863 547.747 145.214 546.106 142.842 545.456C139.457 544.532 136.246 544.714 134.56 545.925C133.797 546.473 133.305 547.047 133.166 547.547C133.013 548.113 133.443 548.824 134.914 550.418C136.925 552.598 138.292 553.842 141.087 556.045C143.133 557.661 143.57 558.063 144.028 558.784C144.333 559.263 144.374 559.471 144.374 560.498C144.374 562.259 143.806 563.209 142.335 563.91C141.725 564.201 141.496 564.236 140.761 564.167C139.693 564.063 139.29 563.827 136.759 561.808C132.042 558.042 128.45 554.359 127.111 551.895C126.306 550.418 126.085 549.594 126.078 548.06C126.071 545.496 126.924 543.455 128.838 541.446C131.696 538.457 135.559 537.209 140.525 537.671C147.801 538.347 153.911 542.247 155.833 547.441C156.526 549.316 156.873 551.535 156.741 553.301C156.561 555.739 155.174 559.416 152.781 563.792C151.893 565.415 151.394 566.025 150.617 566.442C150.041 566.747 148.751 566.879 148.078 566.698V566.698Z" stroke="#F299EE" stroke-width="1.98"/>
</g>
<defs>
<filter id="filter0_f_1_28" x="0.110461" y="138.11" width="138.809" height="151.999" filterUnits="userSpaceOnUse" color-interpolation-filters="sRGB">
<feFlood flood-opacity="0" result="BackgroundImageFix"/>
<feBlend mode="normal" in="SourceGraphic" in2="BackgroundImageFix" result="shape"/>
<feGaussianBlur stdDeviation="6.9544" result="effect1_foregroundBlur_1_28"/>
</filter>
<filter id="filter1_f_1_28" x="46.1013" y="0.102405" width="141.939" height="155.796" filterUnits="userSpaceOnUse" color-interpolation-filters="sRGB">
<feFlood flood-opacity="0" result="BackgroundImageFix"/>
<feBlend mode="normal" in="SourceGraphic" in2="BackgroundImageFix" result="shape"/>
<feGaussianBlur stdDeviation="6.9544" result="effect1_foregroundBlur_1_28"/>
</filter>
<filter id="filter2_f_1_28" x="86.1012" y="252.101" width="141.798" height="163.798" filterUnits="userSpaceOnUse" color-interpolation-filters="sRGB">
<feFlood flood-opacity="0" result="BackgroundImageFix"/>
<feBlend mode="normal" in="SourceGraphic" in2="BackgroundImageFix" result="shape"/>
<feGaussianBlur stdDeviation="6.9544" result="effect1_foregroundBlur_1_28"/>
</filter>
<filter id="filter3_f_1_28" x="9.1012" y="398.102" width="127.077" height="137.797" filterUnits="userSpaceOnUse" color-interpolation-filters="sRGB">
<feFlood flood-opacity="0" result="BackgroundImageFix"/>
<feBlend mode="normal" in="SourceGraphic" in2="BackgroundImageFix" result="shape"/>
<feGaussianBlur stdDeviation="6.9544" result="effect1_foregroundBlur_1_28"/>
</filter>
<filter id="filter4_f_1_28" x="66.1013" y="506.101" width="139.798" height="153.395" filterUnits="userSpaceOnUse" color-interpolation-filters="sRGB">
<feFlood flood-opacity="0" result="BackgroundImageFix"/>
<feBlend mode="normal" in="SourceGraphic" in2="BackgroundImageFix" result="shape"/>
<feGaussianBlur stdDeviation="6.9544" result="effect1_foregroundBlur_1_28"/>
</filter>
</defs>
</svg>
